<?xml version="1.0" encoding="UTF-8"?>
<svg version="1.1" xmlns="http://www.w3.org/2000/svg" width="558" height="530">
<path d="M0 0 C0.33 0.66 0.66 1.32 1 2 C3.64 1.34 6.28 0.68 9 0 C9 0.66 9 1.32 9 2 C9.94987793 1.83773926 10.89975586 1.67547852 11.87841797 1.50830078 C16.5673495 0.84277218 21.21691226 0.85676466 25.9453125 0.8671875 C26.9014595 0.86586823 27.85760651 0.86454895 28.84272766 0.8631897 C31.93685193 0.8612814 35.03088501 0.86758988 38.125 0.875 C39.17358185 0.87588623 40.2221637 0.87677246 41.30252075 0.87768555 C58.22049377 0.89451822 75.10008991 1.19042347 92 2 C96.26113937 10.15845571 99.858262 18.40021381 103.125 27 C106.890416 36.75679616 110.82992671 46.40680385 115 56 C120.51232075 68.71078399 125.60460362 81.5595539 130.62451172 94.47119141 C138.20747224 113.92524028 146.15600044 133.21015732 154.25299072 152.45446777 C159.21473678 164.25378869 164.05831068 176.07799115 168.67700195 188.01635742 C173.03701811 199.22467766 177.64490597 210.32812752 182.25 221.4375 C188.02711469 235.37677673 193.7837335 249.32268783 199.4375 263.3125 C200.64175278 266.29173717 201.84611702 269.27092917 203.05078125 272.25 C203.35846436 273.01089935 203.66614746 273.77179871 203.9831543 274.55575562 C208.33857172 285.31825771 212.73452837 296.06426451 217.125 306.8125 C224.77084218 325.53325147 232.40067471 344.26032047 240 363 C240.58609984 364.44514991 241.17220012 365.89029964 241.75830078 367.33544922 C244.26156183 373.50808306 246.76468072 379.68077401 249.26586914 385.85424805 C252.47180502 393.76682005 255.68139782 401.67787289 258.8984375 409.5859375 C264.94254707 424.44972672 270.9490485 439.32305613 276.77587891 454.27368164 C279.46021282 461.14059399 282.19868961 467.98295981 284.9765625 474.8125 C285.31971497 475.65635254 285.66286743 476.50020508 286.01641846 477.36962891 C287.71934655 481.55425771 289.42655511 485.73709142 291.13867188 489.91796875 C291.76175998 491.44529568 292.38480875 492.97263866 293.0078125 494.5 C293.29580719 495.19971924 293.58380188 495.89943848 293.88052368 496.62036133 C295.15407728 499.74797023 296.17822456 502.71289825 297 506 C272.58 506.33 248.16 506.66 223 507 C223 507.33 223 507.66 223 508 C219.7 508 216.4 508 213 508 C213 507.67 213 507.34 213 507 C212.21332254 506.99576806 211.42664509 506.99153612 210.61612892 506.98717594 C191.49653675 506.88398331 172.37698252 506.77536281 153.25745583 506.66066074 C144.01149395 506.60532391 134.76552822 506.55184117 125.51953125 506.50268555 C117.46306974 506.45984934 109.40663669 506.41357278 101.35021913 506.36312145 C97.0823006 506.33651596 92.81438773 506.31166278 88.54643631 506.29092598 C84.5328021 506.27137056 80.51922209 506.2472301 76.50563622 506.21950912 C75.0293838 506.21013288 73.55311947 506.20245966 72.07684898 506.19658089 C70.06753581 506.18832956 68.05825299 506.17346385 66.04898071 506.15821838 C64.92254969 506.15176583 63.79611866 506.14531328 62.63555336 506.1386652 C60 506 60 506 58 505 C57.13378906 502.93725586 57.13378906 502.93725586 56.265625 500.21484375 C55.93820312 499.20744141 55.61078125 498.20003906 55.2734375 497.16210938 C54.93570312 496.09798828 54.59796875 495.03386719 54.25 493.9375 C51.82320314 486.36104019 49.24708041 478.86720539 46.42565918 471.42904663 C44.3760468 466.02316605 42.38971637 460.5962934 40.421875 455.16015625 C39.50701358 452.64410377 38.59140548 450.1283238 37.67578125 447.61254883 C37.04914488 445.88648952 36.42486284 444.15957398 35.80273438 442.43188477 C34.89069801 439.90136152 33.96969212 437.37426446 33.046875 434.84765625 C32.76978699 434.07180679 32.49269897 433.29595734 32.20721436 432.49659729 C31.00921378 428.52331944 31.00921378 428.52331944 28 426 C28.04439209 425.1455127 28.08878418 424.29102539 28.13452148 423.41064453 C27.98647257 419.65702696 27.14776712 416.94691773 25.84765625 413.4296875 C25.40099609 412.20378906 24.95433594 410.97789062 24.49414062 409.71484375 C24.01733382 408.43474426 23.54011623 407.15479771 23.0625 405.875 C22.13340616 403.35276575 21.20939027 400.82871075 20.28515625 398.3046875 C19.87144775 397.19077637 19.45773926 396.07686523 19.03149414 394.92919922 C17.28530626 389.97043894 17.28530626 389.97043894 17 388 C18.625 385.44921875 18.625 385.44921875 21 382.6875 C21.83273437 381.71554687 22.66546875 380.74359375 23.5234375 379.7421875 C26.04958298 376.94509897 28.64095921 374.2653014 31.34765625 371.64453125 C33.00845601 369.99158397 34.53622391 368.27748362 36.0625 366.5 C40.26111184 361.61923384 44.69090181 356.9562807 49.11352539 352.27929688 C51.47840395 349.76594332 53.75540027 347.3339318 55.796875 344.546875 C56.19390625 344.03640625 56.5909375 343.5259375 57 343 C57.66 343 58.32 343 59 343 C59.20238281 342.46890625 59.40476562 341.9378125 59.61328125 341.390625 C61.60403909 337.95867063 64.34309385 335.4885827 67.1875 332.75 C70.66619169 329.38090536 74.04545543 325.99917983 77.19213867 322.31445312 C81.07620035 317.85151794 85.19484057 313.66082308 89.3828125 309.484375 C90.16010712 308.70612366 90.93740173 307.92787231 91.73825073 307.1260376 C93.36903175 305.49458065 95.00105793 303.86436748 96.63427734 302.23535156 C99.12843699 299.74657042 101.6171854 297.25246726 104.10546875 294.7578125 C105.69759595 293.16634576 107.29003315 291.57518906 108.8828125 289.984375 C109.62250275 289.24266052 110.36219299 288.50094604 111.1242981 287.73675537 C114.61058918 284.2662134 118.09004191 280.99944429 122 278 C125.51654592 274.66378977 128.62655735 271.11911505 131.66796875 267.35546875 C132.10753906 266.90816406 132.54710937 266.46085937 133 266 C133.66 266 134.32 266 135 266 C135.26425781 265.41347656 135.52851563 264.82695312 135.80078125 264.22265625 C137.04300714 261.92028969 138.39631548 260.33525385 140.1875 258.4375 C149.84925702 247.61070783 156.01638609 235.11758779 159 221 C158.55011719 221.6290625 158.10023438 222.258125 157.63671875 222.90625 C146.99554318 237.06605076 133.13354856 243.82466605 116 247 C111.23649568 247.56719207 106.47529561 247.90216937 101.6875 248.1875 C100.45837891 248.26935547 99.22925781 248.35121094 97.96289062 248.43554688 C94.97573669 248.63314071 91.98832486 248.82115645 89 249 C89 248.34 89 247.68 89 247 C87.68 247 86.36 247 85 247 C82.97272296 241.73911954 80.946405 236.47787096 78.92089844 231.21630859 C78.23462556 229.43398553 77.54811027 227.65175579 76.86132812 225.86962891 C74.88259578 220.73476063 72.9089898 215.59797439 70.94226074 210.45849609 C70.31980837 208.83442682 69.69557367 207.21103941 69.06945801 205.58837891 C68.21093144 203.36275032 67.35861803 201.13483937 66.5078125 198.90625 C66.12409988 197.91788147 66.12409988 197.91788147 65.7326355 196.9095459 C64.66918225 194.10626471 64 192.02902142 64 189 C63.34 188.67 62.68 188.34 62 188 C61.31007385 186.14660645 61.31007385 186.14660645 60.66235352 183.70507812 C58.92215538 177.56734769 56.6937497 171.66915037 54.40234375 165.71875 C53.96741104 164.58344849 53.53247833 163.44814697 53.08436584 162.27844238 C52.170983 159.89780259 51.25570697 157.51788837 50.33862305 155.13867188 C48.93195496 151.48559971 47.53503003 147.82889856 46.13867188 144.171875 C45.24798151 141.85394153 44.35672567 139.53622525 43.46484375 137.21875 C43.0471019 136.12300659 42.62936005 135.02726318 42.19895935 133.89831543 C41.80837845 132.88966431 41.41779755 131.88101318 41.01538086 130.84179688 C40.50266884 129.50804016 40.50266884 129.50804016 39.979599 128.14733887 C39.08250191 125.84927116 39.08250191 125.84927116 37 124 C37.33 123.01 37.66 122.02 38 121 C37.34 120.67 36.68 120.34 36 120 C35.1484375 117.93359375 35.1484375 117.93359375 34.375 115.4375 C34.11460937 114.61121094 33.85421875 113.78492187 33.5859375 112.93359375 C33.39257812 112.29550781 33.19921875 111.65742187 33 111 C29.64669291 117.35084572 27.11957517 123.81164892 24.6875 130.5625 C20.43200037 142.21401727 16.03029805 153.80340165 11.5625 165.375 C10.26138772 168.74596612 8.96053715 172.11703293 7.66015625 175.48828125 C7.34404892 176.30773224 7.02794159 177.12718323 6.70225525 177.97146606 C3.93390868 185.15569338 1.21410291 192.3576046 -1.5 199.5625 C-5.87928688 211.16671383 -10.42233176 222.70121479 -14.99676514 234.22949219 C-21.43398472 250.46244444 -27.69151917 266.76248053 -33.92211914 283.07568359 C-34.28711014 284.03130188 -34.65210114 284.98692017 -35.02815247 285.97149658 C-35.73309443 287.81931493 -36.43689672 289.66756855 -37.13945007 291.51629639 C-38.6225935 295.41611957 -40.11481076 299.31017648 -41.66699219 303.18310547 C-42.13524414 304.3588916 -42.60349609 305.53467773 -43.0859375 306.74609375 C-43.68607666 308.22420532 -43.68607666 308.22420532 -44.29833984 309.73217773 C-45.28709319 312.00214831 -45.28709319 312.00214831 -44 314 C-42.59923218 313.99214478 -42.59923218 313.99214478 -41.17016602 313.98413086 C-37.71687204 313.9671238 -34.26362233 313.95456698 -30.81030273 313.94506836 C-29.31355082 313.94002879 -27.81680384 313.93319713 -26.32006836 313.92456055 C-24.17300193 313.91247841 -22.02600038 313.90676809 -19.87890625 313.90234375 C-17.93866577 313.89448853 -17.93866577 313.89448853 -15.95922852 313.88647461 C-13 314 -13 314 -12 315 C-11.87636703 316.96287766 -11.8220456 318.93015158 -11.79467773 320.89672852 C-11.77473251 322.15796036 -11.75478729 323.4191922 -11.73423767 324.71864319 C-11.71725205 326.10539627 -11.70037329 327.49215066 -11.68359375 328.87890625 C-11.66303074 330.2899589 -11.64203445 331.70100529 -11.62062073 333.11204529 C-11.56533245 336.8323359 -11.51595314 340.55268273 -11.46777344 344.27307129 C-11.41760758 348.06686425 -11.36189592 351.86057523 -11.30664062 355.65429688 C-11.19897649 363.10279523 -11.09755003 370.55136159 -11 378 C-10.34 378 -9.68 378 -9 378 C-8.03361198 373.17662041 -7.88407928 368.51541716 -7.9375 363.6171875 C-7.94648856 361.89957786 -7.95526724 360.1819671 -7.96386719 358.46435547 C-7.97011108 357.55538513 -7.97635498 356.64641479 -7.98278809 355.7098999 C-8.08880816 338.24779171 -8.02959629 320.78205828 -7.79248047 303.3213501 C-7.76433162 301.03769346 -7.74308695 298.7539405 -7.72900391 296.47015381 C-7.70774163 293.24779689 -7.66151666 290.02667401 -7.609375 286.8046875 C-7.60814636 285.85843506 -7.60691772 284.91218262 -7.60565186 283.93725586 C-7.40171679 274.63081766 -4.63037589 266.63037589 2 260 C12.89592573 251.00773026 25.40275034 251.83872109 38.94067383 251.88647461 C40.61138191 251.88625557 40.61138191 251.88625557 42.31584167 251.8860321 C45.94625899 251.88672101 49.57662305 251.89446483 53.20703125 251.90234375 C55.74435905 251.90421157 58.28168721 251.90563375 60.8190155 251.90663147 C66.78263987 251.9100413 72.74624754 251.91789838 78.70986336 251.92798096 C85.50809817 251.93922115 92.30633394 251.94467232 99.10457575 251.94967639 C113.06972745 251.96008356 127.0348627 251.97763332 141 252 C141.33 252.99 141.66 253.98 142 255 C141.13375 255.391875 140.2675 255.78375 139.375 256.1875 C136.43163804 257.76819439 134.11003406 259.45154478 131.60546875 261.640625 C129.94146051 263.04956629 128.21271508 264.29714754 126.4375 265.5625 C120.85956331 269.70062512 115.90867818 274.54243347 110.85375977 279.28979492 C109.55288941 280.48992621 108.2368128 281.67368365 106.90991211 282.8449707 C99.44449053 289.43622478 92.41455764 296.43338951 85.38549805 303.48413086 C83.30955574 305.56545189 81.22829578 307.64134813 79.14648438 309.71679688 C77.80176248 311.06217938 76.45735071 312.40787194 75.11328125 313.75390625 C74.19739983 314.66675133 74.19739983 314.66675133 73.26301575 315.59803772 C69.54803263 319.33294168 66.02083629 323.18592141 62.5836792 327.1782074 C60.11068433 330.02302834 57.51862201 332.75368278 54.9375 335.5 C51.53386149 339.13919359 48.29948294 342.76708503 45.375 346.8125 C44.199375 348.3903125 44.199375 348.3903125 43 350 C42.34 350 41.68 350 41 350 C40.76667969 350.55171875 40.53335937 351.1034375 40.29296875 351.671875 C38.65980716 354.61255267 36.60660793 356.79077251 34.3125 359.25 C31.31520384 362.48815511 28.32945391 365.72928552 25.4375 369.0625 C21.99296547 373.03191598 18.45952086 376.91787472 14.91796875 380.80078125 C12.87480508 383.04822519 12.87480508 383.04822519 11 386 C10.34 386 9.68 386 9 386 C8.62875 386.86625 8.62875 386.86625 8.25 387.75 C6.81700012 390.32939979 5.21575324 392.06121592 3 394 C2.34 394 1.68 394 1 394 C1 394.66 1 395.32 1 396 C-7.78197743 403.4797674 -16.13749786 408.13938471 -27.80004883 408.11352539 C-29.51125664 408.11341209 -29.51125664 408.11341209 -31.2570343 408.11329651 C-32.47803329 408.10813522 -33.69903229 408.10297394 -34.95703125 408.09765625 C-36.21513107 408.0962413 -37.4732309 408.09482635 -38.76945496 408.09336853 C-42.10178529 408.08872573 -45.43404632 408.07975228 -48.76635742 408.06866455 C-52.17170617 408.05840503 -55.5770621 408.05386121 -58.98242188 408.04882812 C-65.65496698 408.0378083 -72.32747949 408.021077 -79 408 C-79.19471893 408.66504547 -79.38943787 409.33009094 -79.59005737 410.01528931 C-82.18051997 418.77332994 -82.18051997 418.77332994 -83.8828125 422.8984375 C-84.41382568 424.20240479 -84.41382568 424.20240479 -84.95556641 425.53271484 C-85.34147949 426.47066895 -85.72739258 427.40862305 -86.125 428.375 C-89.54842214 436.80361042 -92.88902101 445.25962189 -96.15625 453.75 C-96.52249481 454.70145905 -96.88873962 455.65291809 -97.26608276 456.63320923 C-98.74699797 460.48334668 -100.22669386 464.33393511 -101.70074463 468.18670654 C-102.74845132 470.92494151 -103.79985889 473.66173563 -104.8515625 476.3984375 C-105.15042358 477.18355713 -105.44928467 477.96867676 -105.75720215 478.77758789 C-109.28467122 487.94134408 -113.16565147 496.96159505 -117 506 C-130.69965799 506.17713195 -144.39940159 506.34307623 -158.09936619 506.49477577 C-164.46093867 506.56556816 -170.82241763 506.6402 -177.18383789 506.72363281 C-183.32400089 506.80402204 -189.46420426 506.87429115 -195.60456657 506.93757248 C-197.94612832 506.96347734 -200.28765279 506.99301625 -202.62912178 507.02626419 C-205.91100741 507.07224233 -209.19278833 507.10524782 -212.47485352 507.13525391 C-213.44086487 507.1517952 -214.40687622 507.16833649 -215.40216064 507.18537903 C-220.68303177 507.218562 -225.00469499 506.7427048 -230 505 C-227.67716246 497.77423501 -224.9897995 490.73962429 -222.1875 483.6875 C-221.19986464 481.18905852 -220.21278211 478.6904062 -219.2265625 476.19140625 C-218.96756668 475.53565613 -218.70857086 474.87990601 -218.44172668 474.20428467 C-215.58115215 466.95380809 -212.76785608 459.68509379 -209.95126343 452.41744995 C-203.90028828 436.80974464 -197.73919154 421.25035386 -191.49414062 405.71923828 C-189.1201436 399.81306777 -186.75889344 393.90179177 -184.39605713 387.9911499 C-183.19415114 384.98481512 -181.99158244 381.9787455 -180.7890625 378.97265625 C-180.33950195 377.84875488 -179.88994141 376.72485352 -179.42675781 375.56689453 C-175.71337891 366.28344727 -175.71337891 366.28344727 -172 357 C-172.66 356.67 -173.32 356.34 -174 356 C-173.01 356 -172.02 356 -171 356 C-170.63777344 354.86046875 -170.27554688 353.7209375 -169.90234375 352.546875 C-167.38899158 345.01708905 -164.44594149 337.64368884 -161.5625 330.25 C-161.25387024 329.45655182 -160.94524048 328.66310364 -160.6272583 327.84561157 C-156.03305966 316.04278464 -151.27708426 304.32085234 -146.38964844 292.63647461 C-142.63588905 283.62807152 -139.08489733 274.55066034 -135.59442139 265.43774414 C-129.83511095 250.41733077 -123.77904342 235.51854881 -117.72090149 220.61668396 C-117.04208855 218.94660867 -116.36375918 217.27633674 -115.68595886 215.60585022 C-114.33853748 212.28572251 -112.98678055 208.96814763 -111.61328125 205.65869141 C-111.24589844 204.76714355 -110.87851563 203.8755957 -110.5 202.95703125 C-110.2009375 202.24135986 -109.901875 201.52568848 -109.59375 200.78833008 C-108.84244983 198.83952422 -108.84244983 198.83952422 -109 196 C-108.34 196 -107.68 196 -107 196 C-106.608125 194.78054687 -106.21625 193.56109375 -105.8125 192.3046875 C-103.76141235 186.15861295 -101.38209652 180.14889505 -99 174.125 C-98.516521 172.8982959 -98.03304199 171.6715918 -97.53491211 170.40771484 C-93.82084537 161.00158746 -90.02004286 151.63174384 -86.19067383 142.27197266 C-81.54271312 130.90628822 -76.98571689 119.50480964 -72.43563843 108.09967041 C-70.37339862 102.93168832 -68.3045841 97.76635667 -66.234375 92.6015625 C-65.2801071 90.21982975 -64.32591089 87.83806829 -63.37173462 85.45629883 C-62.75578072 83.91924103 -62.13955567 82.38229185 -61.52304077 80.84545898 C-60.65907719 78.69156888 -59.79622611 76.53723604 -58.93359375 74.3828125 C-58.68095764 73.75380035 -58.42832153 73.12478821 -58.16802979 72.47671509 C-56.63813328 68.65222871 -55.17362386 64.80772362 -53.73469543 60.94854736 C-52.61783175 57.98641955 -51.43867671 55.0503936 -50.2578125 52.11328125 C-50.00756317 51.48955124 -49.75731384 50.86582123 -49.4994812 50.22319031 C-48.44745054 47.6011335 -47.3933631 44.97990519 -46.33935547 42.35864258 C-45.56140025 40.42299852 -44.78437464 38.48698459 -44.0078125 36.55078125 C-43.75321762 35.91678909 -43.49862274 35.28279694 -43.23631287 34.6295929 C-41.56241344 30.44727464 -39.94869056 26.24513805 -38.35546875 22.03125 C-35.69758706 15.08417439 -32.40468545 8.60909529 -29 2 C-28.15703369 1.97494385 -27.31406738 1.9498877 -26.44555664 1.92407227 C-23.32758326 1.82911845 -20.20978497 1.72987552 -17.09204102 1.62768555 C-15.74085853 1.58428777 -14.38961947 1.5426163 -13.03833008 1.50268555 C-11.09963299 1.44510048 -9.16113724 1.38085702 -7.22265625 1.31640625 C-6.05484619 1.27974854 -4.88703613 1.24309082 -3.68383789 1.20532227 C-1.08220205 1.29923812 -1.08220205 1.29923812 0 0 Z M103 322 C101.7612579 323.09618845 100.51252203 324.18128618 99.25 325.25 C98.69828125 325.72566406 98.1465625 326.20132812 97.578125 326.69140625 C96.1000501 327.91703767 94.55147499 329.05621615 93 330.1875 C86.91367899 335.2430731 82.34364773 343.23670198 81 351 C80.80328192 354.86878887 80.81454637 358.29545742 82 362 C81.443125 362.226875 80.88625 362.45375 80.3125 362.6875 C73.51072695 366.54796578 70.38402333 372.84793 68 380 C67.11949014 389.55982136 68.22942587 396.65149528 73 405 C73.66 405 74.32 405 75 405 C76.93614641 408.20490901 77.11315756 410.02624191 76.5 413.6875 C75.64249256 420.89691441 76.57447372 426.38933401 80.8125 432.375 C83.62956666 435.82265092 86.4014684 438.60300212 90.96875 439.30078125 C93.78418309 440.26993995 94.38752471 441.71204781 95.875 444.25 C100.98240239 452.28683518 107.86748129 456.46687032 117 458.75 C126.21650271 459.52008415 126.21650271 459.52008415 135 457 C135.91667002 454.24998995 136.1012268 452.80463751 136.03076172 449.99438477 C136.01520233 449.19247208 135.99964294 448.39055939 135.98361206 447.56434631 C135.96581696 446.69877609 135.94802185 445.83320587 135.9296875 444.94140625 C135.91877471 443.09181257 135.91106883 441.24219772 135.90625 439.39257812 C135.89843601 436.48797174 135.87569561 433.58844682 135.79785156 430.68481445 C135.36426463 413.36954982 135.36426463 413.36954982 139.49145508 408.55175781 C140.96376376 407.0742483 142.49190462 405.69329871 144.05430603 404.31199646 C147.42831652 401.17192891 148.72008121 398.76118603 149.10235596 394.13777161 C149.18609201 390.62216076 149.10233829 387.13698259 148.9375 383.625 C148.87579852 381.48456373 148.83040728 379.3456291 148.80628967 377.20443726 C148.77896462 375.27831603 148.70526634 373.35301392 148.62866211 371.42822266 C149.07799446 367.27994854 150.40972772 365.22517489 153 362 C153.78375 361.443125 154.5675 360.88625 155.375 360.3125 C157.29613535 358.12690609 157.29613535 358.12690609 156.69921875 355.51953125 C156.27191876 353.57702024 155.83955879 351.63561591 155.40234375 349.6953125 C155 347 155 347 156.125 343.5 C159.04080624 339.61225834 161.1538097 337.97923041 165.9375 337.125 C169.82230026 336.74158396 171.82741125 337.66721416 175 340 C175.66 340 176.32 340 177 340 C179.23977467 345.73942258 179.95978504 350.37321988 177.8125 356.25 C175.04676777 360.44628338 172.42708739 361.68863548 167.5625 362.75 C162.87187031 364.39583498 160.45960969 366.6846398 158 371 C157.30762165 374.52196109 157.42443785 377.8659509 157.625 381.4375 C157.66560547 382.82098633 157.66560547 382.82098633 157.70703125 384.23242188 C157.77723881 386.4907652 157.87547106 388.74411037 158 391 C158.33 390.34 158.66 389.68 159 389 C160.63961799 388.26933245 162.31343048 387.61457749 164 387 C172.03394096 383.99183981 172.03394096 383.99183981 179.4375 379.75 C182.23294089 377.84091842 183.61390568 377 187 377 C191.70651546 378.40824872 194.40676587 380.06520683 197.0625 384.25 C198.13171727 388.52686907 198.47596642 391.80930964 197 396 C194.5 398.9375 194.5 398.9375 192 401 C191.67 401.33 191.34 401.66 191 402 C184 403.4 184 403.4 180.1875 401.875 C178 400 178 400 176.5625 397.3125 C175.7890625 396.1678125 175.7890625 396.1678125 175 395 C170.29740863 394.18215802 167.84703229 395.40616762 164 398 C162.49869121 399.39255674 161.04065999 400.83295644 159.625 402.3125 C156.36288509 405.66174986 153.04471607 408.77235722 149.41015625 411.7109375 C147.18747838 413.7427483 146.06028839 415.4110766 145.75276184 418.41513062 C145.75418686 419.37045685 145.75561188 420.32578308 145.75708008 421.31005859 C145.75400345 422.3948349 145.75092682 423.47961121 145.74775696 424.59725952 C145.75494247 425.76914825 145.76212799 426.94103699 145.76953125 428.1484375 C145.76998947 429.35311676 145.77044769 430.55779602 145.7709198 431.79898071 C145.77394326 434.34939558 145.78183231 436.89980859 145.79418945 439.45019531 C145.812394 443.35228023 145.81469947 447.25412714 145.81445312 451.15625 C145.8193704 453.63281455 145.82519963 456.10937749 145.83203125 458.5859375 C145.83314407 459.75377777 145.8342569 460.92161804 145.83540344 462.12484741 C145.84178329 463.21592804 145.84816315 464.30700867 145.85473633 465.43115234 C145.85854813 466.38806976 145.86235992 467.34498718 145.86628723 468.3309021 C145.99898252 470.97968957 146.41089417 473.41766091 147 476 C151.20808004 472.1241368 153.73197505 469.16860504 154.22363281 463.35620117 C154.21686523 462.42783447 154.21009766 461.49946777 154.203125 460.54296875 C154.21472656 459.51236328 154.22632813 458.48175781 154.23828125 457.41992188 C154.24605127 455.27669255 154.23840884 453.13334823 154.21484375 450.99023438 C154.32161409 444.39921899 155.15031358 440.57148767 159.61621094 435.61450195 C162.19898821 432.60110991 162.04637609 429.88384885 161.875 426.125 C161.85645528 421.87826018 161.97364623 419.2216024 165 416 C168.7713619 413.78155183 171.84581609 412.72459468 176.1875 413 C180.55330028 414.14512794 181.69087018 415.2130271 184 419 C185.84742851 422.69485702 185.33783754 426.95869805 185 431 C183.57789737 434.9316955 182.44976036 435.75782135 178.75 437.75 C175 439 175 439 171.375 439.3125 C167.72636142 440.05574119 166.10350043 441.10519551 163.8671875 444.1015625 C162.26136163 447.61701914 162.6228747 451.228747 163 455 C172.50689925 455.5358795 180.43190435 454.11888584 188 448 C195.18000531 441.4218275 199.36807169 434.17238628 200.234375 424.33984375 C200.24812902 422.22516364 200.13399843 420.1104752 200 418 C200 414.08257112 201.28747921 413.17993404 203.8125 410.25 C210.10725516 402.6095463 212.93526916 395.03288735 212 385 C210.50918265 376.94723855 207.93722779 369.70562615 201.875 364 C199.9129902 362.76470588 199.9129902 362.76470588 197 363 C197.33 362.34 197.66 361.68 198 361 C197.34 361 196.68 361 196 361 C196.23976563 360.20335937 196.23976563 360.20335937 196.484375 359.390625 C198.10492757 351.87715401 198.22248991 342.6656028 194 336 C188.47681637 328.99127043 183.056895 325.97589202 174.4375 324.3125 C170.16929948 322.68282344 168.63163779 320.43647569 165.8046875 316.96875 C161.68328178 312.47267104 156.59190499 311.00835791 150.73828125 309.8984375 C149.84794189 309.72747559 148.95760254 309.55651367 148.0402832 309.38037109 C147.36698975 309.25484863 146.69369629 309.12932617 146 309 C146.00745743 309.58944901 146.01491486 310.17889801 146.02259827 310.78620911 C146.09186195 316.96837418 146.0973269 323.14834882 146.06713867 329.33081055 C146.06407242 331.63227763 146.07681752 333.93382588 146.10620117 336.23510742 C146.36399053 357.86597845 146.36399053 357.86597845 140.4921875 364.04296875 C139.67919189 364.82115967 138.86619629 365.59935059 138.02856445 366.40112305 C133.87553823 371.72173493 134.88675944 379.0391643 135.0625 385.5 C135.0834693 387.67791454 135.09179965 389.85531394 135.09165955 392.0333252 C135.0973482 393.98790563 135.13575255 395.94231061 135.17602539 397.89648438 C135 401 135 401 133 404 C125.67896963 400.47505945 120.57387541 395.90924409 114.875 390.1875 C114.06417969 389.39279297 113.25335938 388.59808594 112.41796875 387.77929688 C103.06191229 378.43097269 103.06191229 378.43097269 102.953125 372.40234375 C103.05109375 371.58894531 103.1490625 370.77554688 103.25 369.9375 C103.45953937 366.29080041 103.45953937 366.29080041 101.5234375 363.38671875 C100.26957238 362.55338864 98.99156433 361.75517594 97.69140625 360.99609375 C96 360 96 360 94.5625 358.1875 C93.36233657 353.52019777 93.31268958 349.54644844 95.25 345.1875 C97.85019383 341.93725772 99.81207887 340.36957546 103.8125 339.125 C108.02281673 338.95988954 110.35422028 339.90705238 114 342 C117.4816478 345.83873988 118.6455169 348.96742777 118.40234375 354.03515625 C117.66417423 357.64000351 115.56844317 360.43155683 113 363 C112.57229001 367.03880431 112.51759853 370.96536952 113 375 C115.04952447 377.45664971 115.04952447 377.45664971 118 379 C119.63246515 380.81606759 121.14721713 382.69940726 122.66796875 384.609375 C123.10753906 385.06828125 123.54710937 385.5271875 124 386 C124.66 386 125.32 386 126 386 C125.98839844 385.44650879 125.97679687 384.89301758 125.96484375 384.32275391 C125.75365413 366.2019303 125.75365413 366.2019303 131 360 C131.721875 359.29875 132.44375 358.5975 133.1875 357.875 C136.11667059 354.84482353 136.12552515 351.67855017 136.11352539 347.59863281 C136.11344986 346.7380426 136.11337433 345.87745239 136.11329651 344.99078369 C136.10813522 344.07085632 136.10297394 343.15092896 136.09765625 342.203125 C136.0962413 341.25435486 136.09482635 340.30558472 136.09336853 339.32806396 C136.08777742 336.30201038 136.07522652 333.27603117 136.0625 330.25 C136.05748385 328.19661565 136.05292115 326.14323014 136.04882812 324.08984375 C136.03781089 319.05986724 136.02055233 314.02994622 136 309 C134.11735736 308.96080195 132.23447298 308.9331325 130.3515625 308.91015625 C129.30307129 308.893479 128.25458008 308.87680176 127.17431641 308.85961914 C116.64329169 309.32534281 110.21936971 314.90424964 103 322 Z M164 347 C163.957279 348.66611905 163.95936168 350.33382885 164 352 C165.06645115 353.29633621 165.06645115 353.29633621 167.5625 353.0625 C168.366875 353.041875 169.17125 353.02125 170 353 C170.67958603 350.60280568 170.67958603 350.60280568 171 348 C170.34 347.34 169.68 346.68 169 346 C166.0745356 345.7763932 166.0745356 345.7763932 164 347 Z M103.25 349.25 C101.73524913 350.94485784 101.73524913 350.94485784 102.3125 353.1875 C102.539375 353.785625 102.76625 354.38375 103 355 C104.98 355 106.96 355 109 355 C110.33304698 352.10813214 110.33304698 352.10813214 109.0625 349.8125 C108.711875 349.214375 108.36125 348.61625 108 348 C105.04843652 347.7093809 105.04843652 347.7093809 103.25 349.25 Z M-12 382 C-12.4683265 384.58605332 -12.4683265 384.58605332 -12.625 387.5625 C-12.69976562 388.57441406 -12.77453125 389.58632813 -12.8515625 390.62890625 C-12.90054688 391.41136719 -12.94953125 392.19382812 -13 393 C-10.57869669 390.57869669 -10.47159496 389.19888623 -9.875 385.875 C-9.70742187 384.96492188 -9.53984375 384.05484375 -9.3671875 383.1171875 C-9.24601563 382.41851562 -9.12484375 381.71984375 -9 381 C-10.2236068 380.9254644 -10.2236068 380.9254644 -12 382 Z M185 386 C184.01 386.99 183.02 387.98 182 389 C182.66 390.32 183.32 391.64 184 393 C185.65 392.67 187.3 392.34 189 392 C189 390.68 189 389.36 189 388 C187.68 387.34 186.36 386.68 185 386 Z M172 422 C170.70366379 423.06645115 170.70366379 423.06645115 170.9375 425.5625 C170.958125 426.366875 170.97875 427.17125 171 428 C173.475 428.495 173.475 428.495 176 429 C176.33 427.35 176.66 425.7 177 424 C174.525 423.01 174.525 423.01 172 422 Z " fill="#0CABF0" transform="translate(244,11)"/>
<path d="M0 0 C2.57457773 2.80174636 3.35089101 4.58270214 4.125 8.3125 C3.99399902 9.27422119 3.99399902 9.27422119 3.86035156 10.25537109 C3.34036839 14.2038246 3.53833559 16.48739905 5.88745117 19.79125977 C8.35619692 22.39339598 10.91148661 24.83395849 13.5625 27.25 C15.33342616 28.92430707 17.10302795 30.60001642 18.87109375 32.27734375 C19.66185303 33.0055835 20.4526123 33.73382324 21.26733398 34.48413086 C25.8014022 38.9466932 24.58238697 45.76399296 24.8125 51.75 C24.87244141 53.00361328 24.93238281 54.25722656 24.99414062 55.54882812 C25.0647168 57.34803711 25.0647168 57.34803711 25.13671875 59.18359375 C25.20572388 60.83766235 25.20572388 60.83766235 25.27612305 62.52514648 C25.125 65.3125 25.125 65.3125 23.125 68.3125 C20.35982558 69.55206095 19.28280946 69.36629868 16.375 68.375 C15.6325 68.024375 14.89 67.67375 14.125 67.3125 C14.125 65.0025 14.125 62.6925 14.125 60.3125 C13.135 59.8175 13.135 59.8175 12.125 59.3125 C12.785 59.3125 13.445 59.3125 14.125 59.3125 C14.06490608 56.56019852 13.97787379 53.8132556 13.875 51.0625 C13.86082031 50.28519531 13.84664063 49.50789063 13.83203125 48.70703125 C13.67107468 44.9406474 13.57203302 42.90979623 11.265625 39.828125 C9.10956622 38.14618209 9.10956622 38.14618209 6.125 37.3125 C5.7125 36.61125 5.3 35.91 4.875 35.1875 C2.48879165 31.26730057 -0.09859069 27.9734834 -3.875 25.3125 C-6.17278887 24.83751538 -8.3144993 24.75186475 -10.65625 24.6796875 C-14.6428459 24.01993395 -17.2573966 21.24951333 -19.875 18.3125 C-21.74552812 14.57144377 -21.41689901 10.38587568 -20.875 6.3125 C-19.21079582 2.52142907 -17.02014539 0.05529701 -13.5625 -2.1875 C-8.50225571 -3.1289408 -4.45354497 -2.61403726 0 0 Z M-10.875 8.3125 C-11.25718767 9.96864657 -11.58895102 11.63707024 -11.875 13.3125 C-10.80854885 14.60883621 -10.80854885 14.60883621 -8.3125 14.375 C-7.508125 14.354375 -6.70375 14.33375 -5.875 14.3125 C-5.875 12.3325 -5.875 10.3525 -5.875 8.3125 C-7.525 8.3125 -9.175 8.3125 -10.875 8.3125 Z " fill="#14ACEE" transform="translate(347.875,392.6875)"/>
<path d="M0 0 C5.60257877 5.60257877 6.38255335 14.521581 9 22 C86.22 22 163.44 22 243 22 C242.67 20.02 242.34 18.04 242 16 C244 18 244 18 246 25 C221.58 25.33 197.16 25.66 172 26 C172 26.33 172 26.66 172 27 C168.7 27 165.4 27 162 27 C162 26.67 162 26.34 162 26 C160.81998382 25.99365209 160.81998382 25.99365209 159.61612892 25.98717594 C140.49653675 25.88398331 121.37698252 25.77536281 102.25745583 25.66066074 C93.01149395 25.60532391 83.76552822 25.55184117 74.51953125 25.50268555 C66.46306974 25.45984934 58.40663669 25.41357278 50.35021913 25.36312145 C46.0823006 25.33651596 41.81438773 25.31166278 37.54643631 25.29092598 C33.5328021 25.27137056 29.51922209 25.2472301 25.50563622 25.21950912 C24.0293838 25.21013288 22.55311947 25.20245966 21.07684898 25.19658089 C19.06753581 25.18832956 17.05825299 25.17346385 15.04898071 25.15821838 C13.92254969 25.15176583 12.79611866 25.14531328 11.63555336 25.1386652 C9 25 9 25 7 24 C6.13037109 22.00634766 6.13037109 22.00634766 5.2734375 19.4140625 C4.9640625 18.48335938 4.6546875 17.55265625 4.3359375 16.59375 C4.01882813 15.6140625 3.70171875 14.634375 3.375 13.625 C2.88773437 12.16707031 2.88773437 12.16707031 2.390625 10.6796875 C0 3.40736607 0 3.40736607 0 0 Z " fill="#52C4F6" transform="translate(295,492)"/>
<path d="M0 0 C1 3 1 3 0.08044434 5.59931946 C-1.30435307 9.95794622 -1.29224829 13.86722062 -1.28710938 18.41088867 C-1.29735893 19.8048436 -1.29735893 19.8048436 -1.30781555 21.22695923 C-1.32137029 23.23867068 -1.33044489 25.25041627 -1.33552551 27.26216698 C-1.34384405 30.45405799 -1.36437904 33.64566694 -1.38806152 36.83747864 C-1.43622058 43.62077694 -1.46916856 50.40410373 -1.5 57.1875 C-1.53576701 65.03453157 -1.57788852 72.88142579 -1.63594055 80.7283268 C-1.65587063 83.85838844 -1.66430198 86.98834242 -1.67224121 90.11845398 C-1.79657714 113.69486571 -1.79657714 113.69486571 -6 120 C-6 118.02 -6 116.04 -6 114 C-6.66 114 -7.32 114 -8 114 C-7.7215625 114.8353125 -7.7215625 114.8353125 -7.4375 115.6875 C-6.92371876 118.40320082 -7.44901578 120.3139519 -8 123 C-7.67 123.99 -7.34 124.98 -7 126 C-7.495 127.485 -7.495 127.485 -8 129 C-8.66 129 -9.32 129 -10 129 C-10 102.27 -10 75.54 -10 48 C-20.56 48 -31.12 48 -42 48 C-40 46 -40 46 -36.94311523 45.75708008 C-35.0202771 45.76324341 -35.0202771 45.76324341 -33.05859375 45.76953125 C-32.03428001 45.77021858 -32.03428001 45.77021858 -30.98927307 45.7709198 C-29.54597231 45.77394109 -28.10267478 45.78182378 -26.65942383 45.79418945 C-24.44275447 45.8124567 -22.22650242 45.81469907 -20.00976562 45.81445312 C-9.14742468 45.85257532 -9.14742468 45.85257532 -8 47 C-7.87636703 48.96287766 -7.8220456 50.93015158 -7.79467773 52.89672852 C-7.7647599 54.78857628 -7.7647599 54.78857628 -7.73423767 56.71864319 C-7.71725205 58.10539627 -7.70037329 59.49215066 -7.68359375 60.87890625 C-7.66303074 62.2899589 -7.64203445 63.70100529 -7.62062073 65.11204529 C-7.56533245 68.8323359 -7.51595314 72.55268273 -7.46777344 76.27307129 C-7.41760758 80.06686425 -7.36189592 83.86057523 -7.30664062 87.65429688 C-7.19897649 95.10279523 -7.09755003 102.55136159 -7 110 C-6.34 110 -5.68 110 -5 110 C-4.03361068 105.17661395 -3.88411213 100.51542015 -3.9375 95.6171875 C-3.94639436 93.89941502 -3.95509233 92.18164151 -3.96362305 90.46386719 C-3.96985687 89.55487671 -3.9760907 88.64588623 -3.98251343 87.70935059 C-4.09047848 70.20959124 -4.0048559 52.70941969 -3.73754883 35.21148682 C-3.70433221 32.91415241 -3.67629015 30.61673704 -3.65356445 28.3192749 C-3.62035041 25.08226006 -3.56842304 21.84605283 -3.51171875 18.609375 C-3.50532883 17.65279999 -3.4989389 16.69622498 -3.49235535 15.71066284 C-3.3629101 9.82506971 -2.37452309 5.39746908 0 0 Z " fill="#5FCAF6" transform="translate(240,279)"/>
<path d="M0 0 C1.03065079 -0.00137466 2.06130157 -0.00274933 3.1231842 -0.00416565 C4.81819061 0.00122726 4.81819061 0.00122726 6.54743958 0.00672913 C8.33300011 0.00651009 8.33300011 0.00651009 10.15463257 0.00628662 C13.41883072 0.00686429 16.68298612 0.01188284 19.94717574 0.01886058 C23.35846887 0.02510788 26.76976282 0.02569901 30.18106079 0.02688599 C36.64084144 0.02999523 43.10060518 0.03820316 49.56037837 0.04823548 C56.9145983 0.05940921 64.26881903 0.06491024 71.62304533 0.06993091 C86.75125452 0.0803861 101.8794479 0.0979777 117.00764465 0.12025452 C115.68764465 1.44025452 114.36764465 2.76025452 113.00764465 4.12025452 C112.01764465 3.62525452 112.01764465 3.62525452 111.00764465 3.12025452 C109.41110434 3.02759691 107.8106975 2.99833066 106.21147156 3 C104.69279984 2.997938 104.69279984 2.997938 103.14344788 2.99583435 C101.47110077 3.00122726 101.47110077 3.00122726 99.76496887 3.00672913 C98.00888809 3.00651009 98.00888809 3.00651009 96.21733093 3.00628662 C93.00265856 3.00686491 89.78802942 3.01188858 86.57336569 3.01886058 C83.21545187 3.02510157 79.85753725 3.02569851 76.49961853 3.02688599 C70.13896918 3.0299971 63.77833696 3.03820753 57.41769516 3.04823548 C50.17716014 3.05940343 42.93662432 3.06490879 35.69608283 3.06993091 C20.79992721 3.08039032 5.90378765 3.09798552 -8.99235535 3.12025452 C-7.15426317 -0.55592983 -3.66678521 -0.00376854 0 0 Z " fill="#07A0EB" transform="translate(264.9923553466797,264.87974548339844)"/>
<path d="M0 0 C1.15223557 -0.00014603 2.30447113 -0.00029205 3.49162292 -0.0004425 C7.2736504 0.00025027 11.05562769 0.00801282 14.83764648 0.01586914 C17.47037224 0.01773558 20.10309835 0.01915841 22.73582458 0.02015686 C28.94041087 0.02325391 35.14497934 0.0314452 41.34955782 0.04150635 C48.41855337 0.05271821 55.48754981 0.05819068 62.55655205 0.06320179 C77.08645726 0.07362932 91.6163485 0.09119701 106.14624023 0.11352539 C106.47624023 1.10352539 106.80624023 2.09352539 107.14624023 3.11352539 C105.49624023 3.44352539 103.84624023 3.77352539 102.14624023 4.11352539 C102.14624023 3.78352539 102.14624023 3.45352539 102.14624023 3.11352539 C86.52528079 3.01991796 70.90439758 2.9494661 55.28322697 2.9062767 C48.02937992 2.88568649 40.77570755 2.85763417 33.52197266 2.81176758 C27.19665528 2.77179073 20.87146447 2.74606685 14.54602426 2.73717141 C11.19928528 2.73197474 7.85319382 2.71771111 4.50651741 2.69060516 C0.76259178 2.66149267 -2.98058844 2.65757286 -6.72460938 2.65942383 C-7.82369125 2.64504272 -8.92277313 2.63066162 -10.05516052 2.61584473 C-16.14232746 2.6483258 -20.61228941 3.38225877 -26.01845646 6.2544899 C-27.85375977 7.11352539 -27.85375977 7.11352539 -30.85375977 7.11352539 C-21.76288248 -0.67865514 -11.42100431 -0.03833849 0 0 Z " fill="#6AD2F8" transform="translate(278.853759765625,262.886474609375)"/>
<path d="M0 0 C4.59449551 -0.70001445 8.42224376 -0.834396 12.60644531 1.37841797 C15.31220342 3.41218165 17.71252127 5.56290493 20.125 7.9375 C20.97231689 8.76548096 21.81963379 9.59346191 22.69262695 10.4465332 C29.08553381 17.45642916 30.53521523 23.31194292 30.1875 32.6875 C29.94023605 36.48774412 29.56951942 40.23471574 29 44 C31.64 44 34.28 44 37 44 C37 34.76 37 25.52 37 16 C37.33 16 37.66 16 38 16 C38.22547184 20.43680453 38.42745053 24.87437147 38.625 29.3125 C38.68945312 30.57513672 38.75390625 31.83777344 38.8203125 33.13867188 C38.871875 34.34716797 38.9234375 35.55566406 38.9765625 36.80078125 C39.02893066 37.91622314 39.08129883 39.03166504 39.13525391 40.1809082 C39 43 39 43 37 46 C34.23482558 47.23956095 33.15780946 47.05379868 30.25 46.0625 C29.13625 45.5365625 29.13625 45.5365625 28 45 C28 42.69 28 40.38 28 38 C27.34 37.67 26.68 37.34 26 37 C26.66 37 27.32 37 28 37 C27.93990608 34.24769852 27.85287379 31.5007556 27.75 28.75 C27.73582031 27.97269531 27.72164063 27.19539063 27.70703125 26.39453125 C27.54607468 22.6281474 27.44703302 20.59729623 25.140625 17.515625 C22.98456622 15.83368209 22.98456622 15.83368209 20 15 C19.5875 14.29875 19.175 13.5975 18.75 12.875 C16.01997672 8.38996175 12.90694878 3.71735994 7.578125 2.40234375 C5.1527408 2.15746447 5.1527408 2.15746447 2.8203125 2.16796875 C1.91925781 2.08482422 1.91925781 2.08482422 1 2 C0.67 1.34 0.34 0.68 0 0 Z " fill="#63CBF5" transform="translate(334,415)"/>
<path d="M0 0 C3.87852818 2.36296885 4.90531556 4.5954884 6.25 8.875 C6.75273437 10.41800781 6.75273437 10.41800781 7.265625 11.9921875 C7.95651909 14.82191331 8.05736229 17.11052717 8 20 C22.29257856 19.68813059 35.99378662 18.93858981 50 16 C51.99832784 15.65678437 53.997801 15.31985975 56 15 C46.63027667 24.36972333 23.14342577 22.34431898 11 23 C11 22.34 11 21.68 11 21 C9.68 21 8.36 21 7 21 C5.82504857 18.06574629 4.66149148 15.12710487 3.5 12.1875 C3.16613281 11.35412109 2.83226562 10.52074219 2.48828125 9.66210938 C2.17246094 8.85966797 1.85664063 8.05722656 1.53125 7.23046875 C1.23798828 6.49207764 0.94472656 5.75368652 0.64257812 4.99291992 C0 3 0 3 0 0 Z " fill="#59C5F2" transform="translate(322,237)"/>
<path d="M0 0 C0 0.99 0 1.98 0 3 C-0.81114258 3.73460449 -1.62228516 4.46920898 -2.45800781 5.22607422 C-5.71431803 8.77949303 -5.63753776 10.6235528 -5.671875 15.3828125 C-5.68462463 16.07889618 -5.69737427 16.77497986 -5.71051025 17.49215698 C-5.74667522 19.70352361 -5.74951806 21.91336443 -5.75 24.125 C-5.77164809 26.34320777 -5.80013846 28.56118805 -5.83233643 30.77926636 C-5.8581368 32.78648303 -5.86651926 34.79390107 -5.87402344 36.80126953 C-6 40 -6 40 -7 43 C-7.66 43 -8.32 43 -9 43 C-9.12391876 38.24952648 -9.21448561 33.50000039 -9.2746582 28.74829102 C-9.29974959 27.13321539 -9.33383126 25.51825274 -9.37719727 23.90356445 C-9.43809286 21.57735294 -9.46626124 19.25264641 -9.48828125 16.92578125 C-9.51408768 16.20787918 -9.5398941 15.48997711 -9.56648254 14.75032043 C-9.56866589 10.81711928 -9.17209965 9.20562852 -6.61401367 6.14916992 C-5.75138916 5.43994385 -4.88876465 4.73071777 -4 4 C-3.236875 3.236875 -2.47375 2.47375 -1.6875 1.6875 C-1.130625 1.130625 -0.57375 0.57375 0 0 Z " fill="#2AB1EE" transform="translate(401,370)"/>
<path d="M0 0 C0.79974747 0.00394775 1.59949493 0.00789551 2.42347717 0.01196289 C3.32941872 0.01957642 3.32941872 0.01957642 4.25366211 0.02734375 C4.35504886 6.78990887 4.42512182 13.55227814 4.47338867 20.31542969 C4.49350899 22.61628544 4.52080845 24.91709004 4.55541992 27.21777344 C4.60391823 30.52421692 4.62662689 33.8299846 4.64428711 37.13671875 C4.66493225 38.16601501 4.68557739 39.19531128 4.70684814 40.25579834 C4.70910252 47.42426419 4.70910252 47.42426419 2.22924805 50.70800781 C1.57730469 51.14338867 0.92536133 51.57876953 0.25366211 52.02734375 C0.73585205 50.60699829 0.73585205 50.60699829 1.2277832 49.15795898 C2.56910425 44.43998228 2.60542583 39.81540778 2.66772461 34.9375 C2.68709076 33.9929747 2.70645691 33.0484494 2.72640991 32.07530212 C2.78583903 29.08023908 2.83244365 26.08513684 2.87866211 23.08984375 C2.91687567 21.05011413 2.95592934 19.01040006 2.99584961 16.97070312 C3.09151021 11.98971076 3.17567575 7.00864292 3.25366211 2.02734375 C0.69086291 2.33752979 -1.87155899 2.65041266 -4.43383789 2.96484375 C-5.51568359 3.09536133 -5.51568359 3.09536133 -6.61938477 3.22851562 C-10.36644373 3.6904818 -14.054267 4.21902054 -17.74633789 5.02734375 C-18.07633789 4.03734375 -18.40633789 3.04734375 -18.74633789 2.02734375 C-16.60181449 1.68568426 -14.45562573 1.35447333 -12.30883789 1.02734375 C-11.11387695 0.84171875 -9.91891602 0.65609375 -8.68774414 0.46484375 C-5.71001975 0.13431339 -2.97746912 -0.01914002 0 0 Z " fill="#76CFF1" transform="translate(376.746337890625,317.97265625)"/>
<path d="M0 0 C0 2.78609491 -0.01431093 5.57163177 -0.03173828 8.35766602 C-0.06763352 14.4434204 -0.09080576 20.52916153 -0.10986328 26.61499023 C-0.11996135 29.2484699 -0.13363816 31.88193826 -0.15087891 34.51538086 C-0.17503715 38.30325071 -0.18645958 42.09097366 -0.1953125 45.87890625 C-0.20563507 47.06223038 -0.21595764 48.2455545 -0.22659302 49.46473694 C-0.22674408 50.55604416 -0.22689514 51.64735138 -0.22705078 52.77172852 C-0.231492 53.73530777 -0.23593323 54.69888702 -0.24050903 55.69166565 C-0.2246605 58.19535397 -0.2246605 58.19535397 2 60 C1.01 60 0.02 60 -1 60 C-0.34 60.66 0.32 61.32 1 62 C1.99 61.505 1.99 61.505 3 61 C2.67 62.32 2.34 63.64 2 65 C0.68 65 -0.64 65 -2 65 C-2.04628728 56.82037612 -2.08185072 48.64080673 -2.10362434 40.46108437 C-2.11407321 36.66313688 -2.12825236 32.86527882 -2.15087891 29.06738281 C-2.17256821 25.40398654 -2.18456031 21.74067643 -2.18975449 18.07722092 C-2.19345731 16.67773456 -2.20068777 15.27825305 -2.21146011 13.87880325 C-2.22592225 11.92266669 -2.22681647 9.96644391 -2.22705078 8.01025391 C-2.231492 6.8955069 -2.23593323 5.78075989 -2.24050903 4.63223267 C-2 2 -2 2 0 0 Z " fill="#6DCAF3" transform="translate(391,424)"/>
<path d="M0 0 C1.30226624 3.90679872 0.38739081 5.21194387 -1.1328125 8.99609375 C-1.60976563 10.19556641 -2.08671875 11.39503906 -2.578125 12.63085938 C-3.09359713 13.89980169 -3.60922282 15.16868164 -4.125 16.4375 C-4.61226562 17.65888672 -5.09953125 18.88027344 -5.6015625 20.13867188 C-7.5142419 24.91782692 -9.43017541 29.68985361 -11.48339844 34.41064453 C-11.94004883 35.4623584 -12.39669922 36.51407227 -12.8671875 37.59765625 C-13.48376221 38.98416382 -13.48376221 38.98416382 -14.11279297 40.39868164 C-15.14716385 42.96185148 -15.14716385 42.96185148 -14.97705078 45.66186523 C-15 48 -15 48 -17.5 50.8125 C-18.325 51.534375 -19.15 52.25625 -20 53 C-19.28803949 48.44933026 -17.69577603 44.32101797 -16.015625 40.05859375 C-15.71815369 39.29507095 -15.42068237 38.53154816 -15.11419678 37.74488831 C-14.48397793 36.1295486 -13.85179244 34.51497498 -13.21777344 32.90112305 C-12.26336175 30.47151448 -11.31471511 28.03972228 -10.3671875 25.60742188 C-7.01674085 17.02594042 -3.59889989 8.48087672 0 0 Z " fill="#63C8F2" transform="translate(57,406)"/>
<path d="M0 0 C1.33691635 4.01074904 0.25771126 5.52860463 -1.30859375 9.41796875 C-1.67695091 10.34383537 -1.67695091 10.34383537 -2.05274963 11.28840637 C-2.83887766 13.25842628 -3.63797257 15.22288517 -4.4375 17.1875 C-4.97286775 18.52244087 -5.50738358 19.85772373 -6.04101562 21.19335938 C-7.35081604 24.46626522 -8.67229601 27.73430962 -10 31 C-10.66 31 -11.32 31 -12 31 C-12.495 32.485 -12.495 32.485 -13 34 C-14.37825634 29.86523099 -12.82520961 27.21908952 -11.25 23.375 C-10.98445312 22.68148437 -10.71890625 21.98796875 -10.4453125 21.2734375 C-9.72207491 19.4758761 -8.86817501 17.73221585 -8 16 C-7.01 15.67 -6.02 15.34 -5 15 C-4.04010409 12.57318092 -4.04010409 12.57318092 -3.4375 9.6875 C-2.61036569 6.18736668 -1.74573114 3.1543039 0 0 Z " fill="#3FBAF0" transform="translate(237,219)"/>
<path d="M0 0 C2.33088789 2.87854637 3.83224797 5.61984828 5.1875 9.0625 C5.53167969 9.91972656 5.87585938 10.77695313 6.23046875 11.66015625 C7 14 7 14 7 17 C7.66 17 8.32 17 9 17 C9.3403125 18.85625 9.3403125 18.85625 9.6875 20.75 C10.80930101 25.94657821 12.86422028 30.5800183 15.07421875 35.3984375 C16 38 16 38 15 41 C11.69678642 33.81157807 8.80214451 26.49056978 5.99853516 19.09570312 C5.24276172 17.10594344 4.47894786 15.11938565 3.71484375 13.1328125 C3.23128092 11.8621655 2.74819039 10.59133864 2.265625 9.3203125 C1.83024414 8.17836426 1.39486328 7.03641602 0.94628906 5.85986328 C0 3 0 3 0 0 Z " fill="#089EE7" transform="translate(285,135)"/>
<path d="M0 0 C2.01144987 2.01144987 2.58723626 3.12174697 3.58813477 5.71191406 C3.88506729 6.47320618 4.18199982 7.23449829 4.4879303 8.01885986 C4.80257736 8.84279236 5.11722443 9.66672485 5.44140625 10.515625 C5.76914536 11.36421082 6.09688446 12.21279663 6.43455505 13.08709717 C7.12723449 14.8850077 7.81719036 16.68396953 8.50463867 18.48388672 C9.55414972 21.22816555 10.61530104 23.96773343 11.67773438 26.70703125 C12.34966846 28.45545642 13.02091475 30.20414611 13.69140625 31.953125 C14.16641319 33.17687836 14.16641319 33.17687836 14.65101624 34.425354 C16.24099318 38.61380398 17.4604549 42.52011343 18 47 C15.25813042 44.25813042 14.34625926 41.00842179 13.03125 37.4375 C12.75027466 36.69040771 12.46929932 35.94331543 12.17980957 35.17358398 C10.97686054 31.97451804 9.78666959 28.7707436 8.59521484 25.56738281 C7.72408578 23.23076307 6.84658819 20.89660569 5.96875 18.5625 C5.70098755 17.83538818 5.4332251 17.10827637 5.15734863 16.35913086 C3.65064645 12.33280948 3.65064645 12.33280948 1 9 C1.33 8.01 1.66 7.02 2 6 C1.34 5.67 0.68 5.34 0 5 C0 3.35 0 1.7 0 0 Z " fill="#68CBF5" transform="translate(280,126)"/>
<path d="M0 0 C0.33 0 0.66 0 1 0 C1.33 5.94 1.66 11.88 2 18 C4.31 16.68 6.62 15.36 9 14 C10.71178439 13.25063516 12.4398022 12.53629106 14.1875 11.875 C17.21743179 10.72028584 20.1215403 9.49547562 23 8 C19.59362889 14.44777389 19.59362889 14.44777389 15.13671875 15.9921875 C13.04830122 16.44608044 10.94843868 16.85088844 8.83984375 17.19921875 C5.53013172 18.13249381 4.28340063 19.50300733 2 22 C1.34 22 0.68 22 0 22 C0 14.74 0 7.48 0 0 Z " fill="#63CAF5" transform="translate(401,382)"/>
<path d="M0 0 C10.89 0 21.78 0 33 0 C33.495 1.485 33.495 1.485 34 3 C32.35 3.33 30.7 3.66 29 4 C29 3.67 29 3.34 29 3 C28.00202393 2.96241577 28.00202393 2.96241577 26.98388672 2.92407227 C23.94742513 2.80748864 20.91122654 2.68504649 17.875 2.5625 C16.82828125 2.52318359 15.7815625 2.48386719 14.703125 2.44335938 C9.72806158 2.23868904 4.89229851 2.00723793 0 1 C0 0.67 0 0.34 0 0 Z " fill="#68D1F7" transform="translate(352,263)"/>
<path d="M0 0 C1.24452234 3.73356702 0.57603411 4.7361346 -0.87109375 8.32421875 C-1.28037109 9.35224609 -1.68964844 10.38027344 -2.11132812 11.43945312 C-2.54896484 12.51130859 -2.98660156 13.58316406 -3.4375 14.6875 C-4.0881543 16.31268555 -4.0881543 16.31268555 -4.75195312 17.97070312 C-5.82628416 20.65062779 -6.90924853 23.32672595 -8 26 C-10.33186588 19.00440236 -6.77369315 12.41174649 -4 6 C-3.34 6 -2.68 6 -2 6 C-1.34 4.02 -0.68 2.04 0 0 Z " fill="#41BCF1" transform="translate(213,281)"/>
<path d="M0 0 C1.0625 1.8125 1.0625 1.8125 2 4 C1 7 1 7 -1 8 C-2.11444366 10.34417459 -3.11127138 12.65318372 -4.0625 15.0625 C-4.4656543 16.02833008 -4.4656543 16.02833008 -4.87695312 17.01367188 C-6.74735721 21.69201426 -7.54690172 25.98235612 -8 31 C-8.99 30.67 -9.98 30.34 -11 30 C-10.34695118 26.10982879 -9.19461184 22.69556088 -7.71484375 19.04296875 C-7.26689453 17.93115234 -6.81894531 16.81933594 -6.35742188 15.67382812 C-5.88884766 14.52333984 -5.42027344 13.37285156 -4.9375 12.1875 C-4.46505859 11.01767578 -3.99261719 9.84785156 -3.50585938 8.64257812 C-2.34111284 5.76012457 -1.17236766 2.87936035 0 0 Z " fill="#55C1F0" transform="translate(94,313)"/>
<path d="M0 0 C0.99 0 1.98 0 3 0 C1.63016497 3.16115776 1.0109362 3.9927092 -2 6 C-4.33199388 6.07905064 -6.66832622 6.08798769 -9 6 C-9.33 6.66 -9.66 7.32 -10 8 C-10.433125 7.54625 -10.86625 7.0925 -11.3125 6.625 C-13.10798342 4.79975666 -13.10798342 4.79975666 -16 3 C-15.67 2.34 -15.34 1.68 -15 1 C-14.34 1.165 -13.68 1.33 -13 1.5 C-9.21171499 2.13138083 -5.84388013 2.18904328 -2 2 C-1.34 1.34 -0.68 0.68 0 0 Z " fill="#1BAAEC" transform="translate(437,408)"/>
<path d="M0 0 C3.14865744 3.62142883 4.56853221 7.62133157 6.1875 12.0625 C6.46013672 12.78244141 6.73277344 13.50238281 7.01367188 14.24414062 C8.1408185 17.28658902 9 19.72988458 9 23 C9.66 23 10.32 23 11 23 C11.66 26.63 12.32 30.26 13 34 C10.24268169 32.62134085 10.17609418 31.24855782 9.16015625 28.37109375 C8.6487207 26.94120117 8.6487207 26.94120117 8.12695312 25.48242188 C7.77568359 24.47759766 7.42441406 23.47277344 7.0625 22.4375 C6.36619025 20.47775625 5.66958052 18.51811905 4.97265625 16.55859375 C4.64023926 15.6135498 4.30782227 14.66850586 3.96533203 13.69482422 C3.0969243 11.2705742 2.1812272 8.87171559 1.24609375 6.47265625 C0 3 0 3 0 0 Z " fill="#08A0E7" transform="translate(307,193)"/>
<path d="M0 0 C1.19926392 2.87823342 0.97290503 4.08545595 0.01196289 7.11621094 C-0.7499939 8.90720215 -0.7499939 8.90720215 -1.52734375 10.734375 C-1.79511124 11.37240051 -2.06287872 12.01042603 -2.33876038 12.66778564 C-3.19444862 14.69984874 -4.06568388 16.72481127 -4.9375 18.75 C-5.52122045 20.1284671 -6.10391509 21.50736906 -6.68554688 22.88671875 C-8.11183958 26.26293539 -9.55214877 29.63296296 -11 33 C-12.17282996 29.48151011 -11.79587393 28.77945293 -10.48828125 25.4296875 C-10.14216797 24.5325 -9.79605469 23.6353125 -9.43945312 22.7109375 C-8.88161133 21.30714844 -8.88161133 21.30714844 -8.3125 19.875 C-7.95994141 18.96234375 -7.60738281 18.0496875 -7.24414062 17.109375 C-4.99253705 11.33012194 -2.57316353 5.64307007 0 0 Z " fill="#64C7F1" transform="translate(194,63)"/>
<path d="M0 0 C0 3 0 3 -1.609375 4.97265625 C-2.31578125 5.66230469 -3.0221875 6.35195313 -3.75 7.0625 C-4.44609375 7.75472656 -5.1421875 8.44695312 -5.859375 9.16015625 C-7.86230368 10.88165152 -9.5975062 11.94512352 -12 13 C-12.99 13.495 -12.99 13.495 -14 14 C-12.47475964 10.39713494 -10.32514563 8.05700017 -7.5625 5.3125 C-6.78003906 4.52488281 -5.99757813 3.73726563 -5.19140625 2.92578125 C-3 1 -3 1 0 0 Z " fill="#2EB4F0" transform="translate(317,340)"/>
<path d="M0 0 C1.20624074 3.61872223 0.70235768 4.25270198 -0.8125 7.625 C-2.29219981 11.07426611 -3.34109011 14.24397757 -4 17.9375 C-4.60207926 21.03547145 -4.77614113 21.78272521 -7.125 24.0625 C-8.053125 24.5265625 -8.053125 24.5265625 -9 25 C-8.38965243 21.51423718 -7.48391539 18.4128077 -6.15234375 15.13671875 C-5.61577148 13.80737305 -5.61577148 13.80737305 -5.06835938 12.45117188 C-4.50858398 11.0831543 -4.50858398 11.0831543 -3.9375 9.6875 C-3.56044922 8.75615234 -3.18339844 7.82480469 -2.79492188 6.86523438 C-1.86716875 4.57521083 -0.93541999 2.28690004 0 0 Z " fill="#56C3F1" transform="translate(125,235)"/>
<path d="M0 0 C0.69140625 1.77734375 0.69140625 1.77734375 1 4 C-2.16606922 8.70358527 -6.82016096 11.85226186 -12 14 C-11.1875 12.0625 -11.1875 12.0625 -10 10 C-9.01 9.67 -8.02 9.34 -7 9 C-6.566875 8.13375 -6.566875 8.13375 -6.125 7.25 C-4.61984999 4.23969997 -2.42622037 2.29852456 0 0 Z " fill="#3DBAF0" transform="translate(386,268)"/>
<path d="M0 0 C-0.33 0.66 -0.66 1.32 -1 2 C-3.60149967 2.45437152 -6.12836862 2.79710598 -8.75 3.0625 C-15.4120986 3.78634625 -15.4120986 3.78634625 -22 5 C-22.33 4.01 -22.66 3.02 -23 2 C-15.27279225 0.76892281 -7.8316181 -0.2700558 0 0 Z " fill="#41BDF3" transform="translate(381,318)"/>
<path d="M0 0 C4.00717 2.39925095 4.92541081 4.78797162 6.25 9.1875 C6.75273437 10.81751953 6.75273437 10.81751953 7.265625 12.48046875 C7.50796875 13.31191406 7.7503125 14.14335937 8 15 C7.01 15.33 6.02 15.66 5 16 C4.1605118 13.89828133 3.32860344 11.79353375 2.5 9.6875 C2.0359375 8.51574219 1.571875 7.34398437 1.09375 6.13671875 C0 3 0 3 0 0 Z " fill="#3DB8F0" transform="translate(322,237)"/>
<path d="M0 0 C1.14680101 3.44040303 0.87124738 4.00270384 -0.43359375 7.23046875 C-0.75263672 8.03291016 -1.07167969 8.83535156 -1.40039062 9.66210938 C-1.74263672 10.49548828 -2.08488281 11.32886719 -2.4375 12.1875 C-2.77587891 13.03248047 -3.11425781 13.87746094 -3.46289062 14.74804688 C-4.30025552 16.83556216 -5.14620197 18.91916409 -6 21 C-7.75258419 17.98529362 -8.08952186 17.38046792 -7.25 13.8125 C-6 11 -6 11 -4 10 C-2.86897474 7.65961814 -2.86897474 7.65961814 -1.875 4.9375 C-1.52179688 4.01839844 -1.16859375 3.09929687 -0.8046875 2.15234375 C-0.40636719 1.08693359 -0.40636719 1.08693359 0 0 Z " fill="#48BEF0" transform="translate(263,151)"/>
<path d="M0 0 C0.66 0.33 1.32 0.66 2 1 C0.6875 3.5 0.6875 3.5 -1 6 C-1.99 6 -2.98 6 -4 6 C-4 9.96 -4 13.92 -4 18 C-6 16 -6 16 -6.3125 12.1875 C-6.19159453 7.42037009 -4.54003401 4.65411061 -1.3125 1.1875 C-0.879375 0.795625 -0.44625 0.40375 0 0 Z " fill="#43BDF1" transform="translate(343,351)"/>
<path d="M0 0 C1.39214652 4.17643955 -0.29335734 6.83437793 -1.9375 10.6875 C-2.22818359 11.38939453 -2.51886719 12.09128906 -2.81835938 12.81445312 C-3.53710313 14.54650775 -4.26745331 16.27373781 -5 18 C-6.07230715 14.78307855 -5.93694604 13.75977701 -5.1875 10.5625 C-5.01605469 9.80066406 -4.84460938 9.03882813 -4.66796875 8.25390625 C-4.00007466 6.00025191 -3.1145722 4.06454514 -2 2 C-1.34 2 -0.68 2 0 2 C0 1.34 0 0.68 0 0 Z " fill="#49BEF1" transform="translate(158,433)"/>
<path d="M0 0 C0.66 0.99 1.32 1.98 2 3 C0.75 4.5 0.75 4.5 -1 6 C-2.32 6 -3.64 6 -5 6 C-5.66 7.32 -6.32 8.64 -7 10 C-7.99 10 -8.98 10 -10 10 C-7.02911382 6.00073014 -3.87051275 3.07881696 0 0 Z " fill="#2DB5F0" transform="translate(373,282)"/>
<path d="M0 0 C0 3 0 3 -1.75 5.04296875 C-2.4925 5.75066406 -3.235 6.45835937 -4 7.1875 C-4.7425 7.90292969 -5.485 8.61835938 -6.25 9.35546875 C-6.8275 9.89816406 -7.405 10.44085938 -8 11 C-8.63671875 9.1640625 -8.63671875 9.1640625 -9 7 C-6.36359864 3.83631836 -3.82792868 1.5595265 0 0 Z " fill="#27B1F0" transform="translate(298,360)"/>
<path d="M0 0 C1.299375 0.2475 1.299375 0.2475 2.625 0.5 C5.81225199 0.97218548 8.78485027 1.07655118 12 1 C10.515 3.475 10.515 3.475 9 6 C5.52433865 4.84144622 2.97604365 3.11629771 0 1 C0 0.67 0 0.34 0 0 Z " fill="#41BCF2" transform="translate(368,410)"/>
<path d="M0 0 C1.22787058 3.68361173 0.6048575 4.48407327 -0.9375 7.9375 C-2.49057579 11.42797202 -3 13.06310645 -3 17 C-3.99 17.33 -4.98 17.66 -6 18 C-4.83805848 11.53287812 -2.8751252 5.90377651 0 0 Z " fill="#5FC7F2" transform="translate(36,459)"/>
<path d="M0 0 C4.95 0 9.9 0 15 0 C15.33 0.99 15.66 1.98 16 3 C13.625 3.625 13.625 3.625 11 4 C10.34 3.34 9.68 2.68 9 2 C6.79749008 1.53993654 6.79749008 1.53993654 4.375 1.375 C3.14910156 1.26285156 3.14910156 1.26285156 1.8984375 1.1484375 C1.27195312 1.09945313 0.64546875 1.05046875 0 1 C0 0.67 0 0.34 0 0 Z " fill="#4DC3F3" transform="translate(370,263)"/>
<path d="M0 0 C1.32 0.33 2.64 0.66 4 1 C0.37 4.63 -3.26 8.26 -7 12 C-7.66 11.67 -8.32 11.34 -9 11 C-8.43410156 10.45730469 -7.86820312 9.91460937 -7.28515625 9.35546875 C-6.55167969 8.64003906 -5.81820313 7.92460937 -5.0625 7.1875 C-3.96615234 6.12595703 -3.96615234 6.12595703 -2.84765625 5.04296875 C-0.79165354 3.04463837 -0.79165354 3.04463837 0 0 Z " fill="#4EC0F2" transform="translate(406,407)"/>
<path d="M0 0 C8.25 0 16.5 0 25 0 C25 0.33 25 0.66 25 1 C16.53438902 2.12298921 8.48799189 1.80542989 0 1 C0 0.67 0 0.34 0 0 Z " fill="#27B7F4" transform="translate(57,518)"/>
<path d="M0 0 C0.8125 1.6875 0.8125 1.6875 1 4 C-1.25 6.75 -1.25 6.75 -4 9 C-4.99 9 -5.98 9 -7 9 C-5.44499019 5.18315774 -2.96404505 2.80804268 0 0 Z " fill="#25AFEE" transform="translate(453,415)"/>
<path d="M0 0 C0.99 0.495 1.98 0.99 3 1.5 C7.13477234 3.30103581 10.53198453 3.23515871 15 3 C14.67 3.66 14.34 4.32 14 5 C11.69 5 9.38 5 7 5 C6.67 5.66 6.34 6.32 6 7 C5.566875 6.54625 5.13375 6.0925 4.6875 5.625 C2.89201658 3.79975666 2.89201658 3.79975666 0 2 C0 1.34 0 0.68 0 0 Z " fill="#56C4F2" transform="translate(421,409)"/>
<path d="M0 0 C1.32 0.33 2.64 0.66 4 1 C2.02 3.31 0.04 5.62 -2 8 C-2.66 7.67 -3.32 7.34 -4 7 C-2.92598892 4.08482708 -2.22189824 2.22189824 0 0 Z " fill="#28B0ED" transform="translate(246,271)"/>
<path d="M0 0 C1.32 1.32 2.64 2.64 4 4 C3.01 4 2.02 4 1 4 C1.66 4.66 2.32 5.32 3 6 C3.66 5.67 4.32 5.34 5 5 C4.67 6.32 4.34 7.64 4 9 C2.68 9 1.36 9 0 9 C0 6.03 0 3.06 0 0 Z " fill="#51C3F4" transform="translate(389,480)"/>
<path d="M0 0 C0 0.66 0 1.32 0 2 C-1.1446875 2.4021875 -1.1446875 2.4021875 -2.3125 2.8125 C-4.90496926 3.95800967 -6.08815544 4.99711522 -8 7 C-8.66 7 -9.32 7 -10 7 C-8.2054392 2.26888516 -5.07937287 0 0 0 Z " fill="#05A3EA" transform="translate(430,389)"/>
<path d="M0 0 C1.231394 3.69418201 0.64432764 6.2056261 0 10 C-1.32 10 -2.64 10 -4 10 C-3.52449439 8.51965236 -3.04448784 7.04074979 -2.5625 5.5625 C-2.29566406 4.73878906 -2.02882813 3.91507812 -1.75390625 3.06640625 C-1 1 -1 1 0 0 Z " fill="#0AA2E7" transform="translate(20,504)"/>
<path d="M0 0 C0.33 0 0.66 0 1 0 C1.56638908 4.81430721 -0.17438373 7.20307814 -3 11 C-3.33 10.34 -3.66 9.68 -4 9 C-3.22265625 6.8359375 -3.22265625 6.8359375 -2.0625 4.375 C-1.68222656 3.55773437 -1.30195313 2.74046875 -0.91015625 1.8984375 C-0.60980469 1.27195313 -0.30945313 0.64546875 0 0 Z " fill="#07A1E8" transform="translate(141,200)"/>
<path d="M0 0 C1 2 1 2 0.25 4.9375 C-0.89726872 7.74830836 -1.69701628 9.1157406 -4 11 C-3.48964169 6.6109185 -2.47785723 3.66291938 0 0 Z " fill="#0DA3E6" transform="translate(214,18)"/>
<path d="M0 0 C0.66 1.32 1.32 2.64 2 4 C2.66 4 3.32 4 4 4 C4.33 5.65 4.66 7.3 5 9 C2 8 2 8 0.8125 6.1875 C0 4 0 4 0 0 Z " fill="#2AB2EE" transform="translate(473,353)"/>
<path d="M0 0 C3.3 0.33 6.6 0.66 10 1 C10.33 1.99 10.66 2.98 11 4 C7.0507432 3.44894091 3.65079826 2.61064629 0 1 C0 0.67 0 0.34 0 0 Z " fill="#0AA1E9" transform="translate(396,319)"/>
<path d="M0 0 C2.22825644 2.22825644 2.69239369 3.65761628 3.625 6.625 C4.01558594 7.85089844 4.01558594 7.85089844 4.4140625 9.1015625 C4.60742188 9.72804687 4.80078125 10.35453125 5 11 C3.68 10.34 2.36 9.68 1 9 C1.33 8.01 1.66 7.02 2 6 C1.34 5.67 0.68 5.34 0 5 C0 3.35 0 1.7 0 0 Z " fill="#56C5F4" transform="translate(280,126)"/>
<path d="M0 0 C0.33 0.99 0.66 1.98 1 3 C-1.97 2.67 -4.94 2.34 -8 2 C-6.20734607 -1.58530786 -3.34030841 -1.33612336 0 0 Z " fill="#35B7F0" transform="translate(416,356)"/>
<path d="M0 0 C3.63 0 7.26 0 11 0 C11 0.33 11 0.66 11 1 C7.37 1 3.74 1 0 1 C0 0.67 0 0.34 0 0 Z " fill="#26B7F6" transform="translate(323,518)"/>
<path d="M0 0 C3.3 0 6.6 0 10 0 C10 0.33 10 0.66 10 1 C6.7 1 3.4 1 0 1 C0 0.67 0 0.34 0 0 Z " fill="#28B8F3" transform="translate(505,518)"/>
<path d="M0 0 C2.31 0 4.62 0 7 0 C7 0.33 7 0.66 7 1 C4.69 1 2.38 1 0 1 C0 0.67 0 0.34 0 0 Z " fill="#2AB7F1" transform="translate(516,518)"/>
<path d="M0 0 C2.31 0 4.62 0 7 0 C7 0.33 7 0.66 7 1 C4.69 1 2.38 1 0 1 C0 0.67 0 0.34 0 0 Z " fill="#28B7F4" transform="translate(497,518)"/>
<path d="M0 0 C2.31 0 4.62 0 7 0 C7 0.33 7 0.66 7 1 C4.69 1 2.38 1 0 1 C0 0.67 0 0.34 0 0 Z " fill="#29B9F7" transform="translate(476,518)"/>
<path d="M0 0 C2.31 0 4.62 0 7 0 C7 0.33 7 0.66 7 1 C4.69 1 2.38 1 0 1 C0 0.67 0 0.34 0 0 Z " fill="#29BAF6" transform="translate(449,518)"/>
<path d="M0 0 C2.31 0 4.62 0 7 0 C7 0.33 7 0.66 7 1 C4.69 1 2.38 1 0 1 C0 0.67 0 0.34 0 0 Z " fill="#27B8F6" transform="translate(441,518)"/>
<path d="M0 0 C2.31 0 4.62 0 7 0 C7 0.33 7 0.66 7 1 C4.69 1 2.38 1 0 1 C0 0.67 0 0.34 0 0 Z " fill="#27BAF6" transform="translate(377,518)"/>
<path d="M0 0 C2.31 0 4.62 0 7 0 C7 0.33 7 0.66 7 1 C4.69 1 2.38 1 0 1 C0 0.67 0 0.34 0 0 Z " fill="#26B7F4" transform="translate(313,518)"/>
<path d="M0 0 C2.31 0 4.62 0 7 0 C7 0.33 7 0.66 7 1 C4.69 1 2.38 1 0 1 C0 0.67 0 0.34 0 0 Z " fill="#27B8F4" transform="translate(100,518)"/>
<path d="M0 0 C2.31 0 4.62 0 7 0 C7 0.33 7 0.66 7 1 C4.69 1 2.38 1 0 1 C0 0.67 0 0.34 0 0 Z " fill="#26B7F4" transform="translate(84,518)"/>
<path d="M0 0 C1.98 0 3.96 0 6 0 C6 0.33 6 0.66 6 1 C4.02 1 2.04 1 0 1 C0 0.67 0 0.34 0 0 Z " fill="#27B8F6" transform="translate(345,518)"/>
<path d="M0 0 C1.98 0 3.96 0 6 0 C6 0.33 6 0.66 6 1 C4.02 1 2.04 1 0 1 C0 0.67 0 0.34 0 0 Z " fill="#27B7F4" transform="translate(93,518)"/>
<path d="M0 0 C1.65 0 3.3 0 5 0 C5 0.33 5 0.66 5 1 C3.35 1 1.7 1 0 1 C0 0.67 0 0.34 0 0 Z " fill="#27B7F4" transform="translate(113,518)"/>
<path d="M0 0 C0.66 1.32 1.32 2.64 2 4 C1.34 3.67 0.68 3.34 0 3 C0 2.01 0 1.02 0 0 Z " fill="#21B1EE" transform="translate(288,153)"/>
<path d="M0 0 C4 1 4 1 4 1 Z " fill="#27B9F5" transform="translate(436,518)"/>
<path d="M0 0 C4 1 4 1 4 1 Z " fill="#27B9F6" transform="translate(428,518)"/>
<path d="M0 0 C4 1 4 1 4 1 Z " fill="#28B9F6" transform="translate(420,518)"/>
<path d="M0 0 C4 1 4 1 4 1 Z " fill="#28BAF6" transform="translate(412,518)"/>
<path d="M0 0 C4 1 4 1 4 1 Z " fill="#28BAF6" transform="translate(404,518)"/>
<path d="M0 0 C4 1 4 1 4 1 Z " fill="#27B9F6" transform="translate(399,518)"/>
<path d="M0 0 C4 1 4 1 4 1 Z " fill="#27B9F6" transform="translate(372,518)"/>
<path d="M0 0 C4 1 4 1 4 1 Z " fill="#28BAF6" transform="translate(364,518)"/>
<path d="M0 0 C4 1 4 1 4 1 Z " fill="#28B9F6" transform="translate(340,518)"/>
<path d="M0 0 C4 1 4 1 4 1 Z " fill="#28B7F4" transform="translate(108,518)"/>
<path d="M0 0 C4 1 4 1 4 1 Z " fill="#29B9F5" transform="translate(52,518)"/>
<path d="M0 0 C4 1 4 1 4 1 Z " fill="#29B6EF" transform="translate(409,464)"/>
<path d="M0 0 C0.66 0.66 1.32 1.32 2 2 C1.01 2.495 1.01 2.495 0 3 C0 2.01 0 1.02 0 0 Z " fill="#2FB8F2" transform="translate(351,362)"/>
<path d="M0 0 C0.99 0.495 0.99 0.495 2 1 C1.34 1.66 0.68 2.32 0 3 C0 2.01 0 1.02 0 0 Z " fill="#29ABE2" transform="translate(86,325)"/>
<path d="M0 0 C1 4 1 4 1 4 Z " fill="#23B0EE" transform="translate(278,126)"/>
<path d="M0 0 C3 1 3 1 3 1 Z " fill="#29B8F6" transform="translate(493,518)"/>
<path d="" fill="#2AADE2" transform="translate(0,0)"/>
<path d="M0 0 C0.33 0.66 0.66 1.32 1 2 C0.34 1.67 -0.32 1.34 -1 1 C-0.67 0.67 -0.34 0.34 0 0 Z " fill="#29B9F4" transform="translate(378,444)"/>
<path d="M0 0 C0.33 0.66 0.66 1.32 1 2 C0.34 1.67 -0.32 1.34 -1 1 C-0.67 0.67 -0.34 0.34 0 0 Z " fill="#2CB7F2" transform="translate(417,434)"/>
<path d="M0 0 C0.66 0 1.32 0 2 0 C1.67 0.66 1.34 1.32 1 2 C0.67 1.34 0.34 0.68 0 0 Z " fill="#25B2EE" transform="translate(263,411)"/>
<path d="" fill="#27B6F1" transform="translate(0,0)"/>
<path d="" fill="#2BB9F3" transform="translate(0,0)"/>
<path d="M0 0 C0.66 0.66 1.32 1.32 2 2 C1.34 2 0.68 2 0 2 C0 1.34 0 0.68 0 0 Z " fill="#2AB6F1" transform="translate(398,366)"/>
<path d="M0 0 C0.99 0.495 0.99 0.495 2 1 C1.01 1.495 1.01 1.495 0 2 C0 1.34 0 0.68 0 0 Z " fill="#29AAE2" transform="translate(102,285)"/>
<path d="M0 0 C0.66 0 1.32 0 2 0 C1.67 0.66 1.34 1.32 1 2 C0.67 1.34 0.34 0.68 0 0 Z " fill="#26B4EE" transform="translate(239,272)"/>
<path d="M0 0 C0.33 0.66 0.66 1.32 1 2 C0.34 1.67 -0.32 1.34 -1 1 C-0.67 0.67 -0.34 0.34 0 0 Z " fill="#23B4EF" transform="translate(313,220)"/>
<path d="M0 0 C0.99 0.495 0.99 0.495 2 1 C1.01 1.495 1.01 1.495 0 2 C0 1.34 0 0.68 0 0 Z " fill="#21AFED" transform="translate(260,166)"/>
<path d="" fill="#2BACE2" transform="translate(0,0)"/>
<path d="M0 0 C0.66 0 1.32 0 2 0 C1.67 0.66 1.34 1.32 1 2 C0.67 1.34 0.34 0.68 0 0 Z " fill="#25B2EF" transform="translate(286,150)"/>
<path d="" fill="#2AACE3" transform="translate(0,0)"/>
<path d="M0 0 C0.99 0.495 0.99 0.495 2 1 C1.01 1.495 1.01 1.495 0 2 C0 1.34 0 0.68 0 0 Z " fill="#2DA7DB" transform="translate(198,40)"/>
<path d="M0 0 C2 1 2 1 2 1 Z " fill="#2BB0EA" transform="translate(534,518)"/>
<path d="M0 0 C2 1 2 1 2 1 Z " fill="#2AB6F1" transform="translate(524,518)"/>
<path d="M0 0 C2 1 2 1 2 1 Z " fill="#29B7F5" transform="translate(489,518)"/>
<path d="M0 0 C2 1 2 1 2 1 Z " fill="#2AB9F6" transform="translate(484,518)"/>
<path d="M0 0 C2 1 2 1 2 1 Z " fill="#29BAF7" transform="translate(468,518)"/>
<path d="M0 0 C2 1 2 1 2 1 Z " fill="#27B8F5" transform="translate(425,518)"/>
<path d="M0 0 C2 1 2 1 2 1 Z " fill="#29B9F6" transform="translate(417,518)"/>
<path d="M0 0 C2 1 2 1 2 1 Z " fill="#29B9F5" transform="translate(409,518)"/>
<path d="M0 0 C2 1 2 1 2 1 Z " fill="#28B8F6" transform="translate(393,518)"/>
<path d="M0 0 C2 1 2 1 2 1 Z " fill="#29BAF6" transform="translate(388,518)"/>
<path d="M0 0 C2 1 2 1 2 1 Z " fill="#27B9F7" transform="translate(385,518)"/>
<path d="M0 0 C2 1 2 1 2 1 Z " fill="#27B9F5" transform="translate(369,518)"/>
<path d="M0 0 C2 1 2 1 2 1 Z " fill="#28B9F6" transform="translate(361,518)"/>
<path d="M0 0 C2 1 2 1 2 1 Z " fill="#28B8F6" transform="translate(337,518)"/>
<path d="M0 0 C2 1 2 1 2 1 Z " fill="#29B5F0" transform="translate(124,518)"/>
<path d="M0 0 C2 1 2 1 2 1 Z " fill="#2AB8F4" transform="translate(44,518)"/>
<path d="M0 0 C2 1 2 1 2 1 Z " fill="#29B8F4" transform="translate(41,518)"/>
<path d="" fill="#2CA9DE" transform="translate(0,0)"/>
<path d="" fill="#2DAAE5" transform="translate(0,0)"/>
<path d="" fill="#2BB6F4" transform="translate(0,0)"/>
<path d="" fill="#25B7F3" transform="translate(0,0)"/>
<path d="" fill="#2BB5F0" transform="translate(0,0)"/>
<path d="" fill="#29ACE4" transform="translate(0,0)"/>
<path d="" fill="#27B6F1" transform="translate(0,0)"/>
<path d="M0 0 C2 1 2 1 2 1 Z " fill="#2DB6F2" transform="translate(418,436)"/>
<path d="M0 0 C2 1 2 1 2 1 Z " fill="#2AB5F0" transform="translate(200,420)"/>
<path d="M0 0 C2 1 2 1 2 1 Z " fill="#2AB5F0" transform="translate(422,413)"/>
<path d="" fill="#28B8F1" transform="translate(0,0)"/>
<path d="M0 0 C2 1 2 1 2 1 Z " fill="#2BB6F2" transform="translate(358,404)"/>
<path d="" fill="#29ADE3" transform="translate(0,0)"/>
<path d="" fill="#27B7F3" transform="translate(0,0)"/>
<path d="M0 0 C2 1 2 1 2 1 Z " fill="#25B4F1" transform="translate(446,383)"/>
<path d="" fill="#2CB5F2" transform="translate(0,0)"/>
<path d="" fill="#29B8F2" transform="translate(0,0)"/>
<path d="M0 0 C2 1 2 1 2 1 Z " fill="#2CB3EF" transform="translate(410,375)"/>
<path d="" fill="#2EB7EE" transform="translate(0,0)"/>
<path d="" fill="#28B7F0" transform="translate(0,0)"/>
<path d="" fill="#2BB9F3" transform="translate(0,0)"/>
<path d="" fill="#29B6F2" transform="translate(0,0)"/>
<path d="M0 0 C2 1 2 1 2 1 Z " fill="#26B4EF" transform="translate(310,336)"/>
<path d="" fill="#27B6F1" transform="translate(0,0)"/>
<path d="" fill="#27B5EF" transform="translate(0,0)"/>
<path d="" fill="#2AB6F0" transform="translate(0,0)"/>
<path d="" fill="#20AEEC" transform="translate(0,0)"/>
<path d="M0 0 C2 1 2 1 2 1 Z " fill="#27B3EF" transform="translate(319,239)"/>
<path d="" fill="#23B1EE" transform="translate(0,0)"/>
<path d="M0 0 C2 1 2 1 2 1 Z " fill="#24B4EF" transform="translate(310,216)"/>
<path d="" fill="#21B1ED" transform="translate(0,0)"/>
<path d="" fill="#21B0ED" transform="translate(0,0)"/>
<path d="" fill="#23B3EF" transform="translate(0,0)"/>
<path d="" fill="#2BAAE3" transform="translate(0,0)"/>
<path d="" fill="#22B3EF" transform="translate(0,0)"/>
<path d="" fill="#25B1ED" transform="translate(0,0)"/>
<path d="" fill="#23B2F0" transform="translate(0,0)"/>
<path d="M0 0 C2 1 2 1 2 1 Z " fill="#26B3F1" transform="translate(275,127)"/>
<path d="" fill="#2AACE3" transform="translate(0,0)"/>
<path d="M0 0 C2 1 2 1 2 1 Z " fill="#2BACE3" transform="translate(363,74)"/>
<path d="" fill="#2BAEE4" transform="translate(0,0)"/>
<path d="M0 0 C2 1 2 1 2 1 Z " fill="#2AABE1" transform="translate(191,64)"/>
<path d="" fill="#2CABDF" transform="translate(0,0)"/>
<path d="" fill="#28AAE2" transform="translate(0,0)"/>
<path d="" fill="#2EA7DC" transform="translate(0,0)"/>
<path d="" fill="#24B2EE" transform="translate(0,0)"/>
<path d="" fill="#2AB9F6" transform="translate(0,0)"/>
<path d="" fill="#2BBBF7" transform="translate(0,0)"/>
<path d="" fill="#2BBCF7" transform="translate(0,0)"/>
<path d="" fill="#27B8F5" transform="translate(0,0)"/>
<path d="" fill="#2ABAF7" transform="translate(0,0)"/>
<path d="" fill="#27BAF7" transform="translate(0,0)"/>
<path d="" fill="#28BBF6" transform="translate(0,0)"/>
<path d="" fill="#28B9F6" transform="translate(0,0)"/>
<path d="" fill="#24B5F5" transform="translate(0,0)"/>
<path d="" fill="#26B2EF" transform="translate(0,0)"/>
<path d="" fill="#29B5F1" transform="translate(0,0)"/>
<path d="" fill="#29B8F4" transform="translate(0,0)"/>
<path d="" fill="#29B9F5" transform="translate(0,0)"/>
<path d="" fill="#29B8F4" transform="translate(0,0)"/>
<path d="" fill="#2BB7F3" transform="translate(0,0)"/>
<path d="" fill="#2AB5F0" transform="translate(0,0)"/>
<path d="" fill="#27B2F0" transform="translate(0,0)"/>
<path d="" fill="#2EACE1" transform="translate(0,0)"/>
<path d="" fill="#31ACE3" transform="translate(0,0)"/>
<path d="" fill="#20B1EE" transform="translate(0,0)"/>
<path d="" fill="#24AFEB" transform="translate(0,0)"/>
<path d="" fill="#23B1EB" transform="translate(0,0)"/>
<path d="" fill="#29B6F2" transform="translate(0,0)"/>
<path d="" fill="#2AB7F1" transform="translate(0,0)"/>
<path d="" fill="#2CAFE7" transform="translate(0,0)"/>
<path d="" fill="#28B3EE" transform="translate(0,0)"/>
<path d="" fill="#29ACE3" transform="translate(0,0)"/>
<path d="" fill="#2AB8F2" transform="translate(0,0)"/>
<path d="" fill="#29B6F3" transform="translate(0,0)"/>
<path d="" fill="#2AB6F1" transform="translate(0,0)"/>
<path d="" fill="#2BB9F1" transform="translate(0,0)"/>
<path d="" fill="#27B5F0" transform="translate(0,0)"/>
<path d="" fill="#2BB7F2" transform="translate(0,0)"/>
<path d="" fill="#26B6F0" transform="translate(0,0)"/>
<path d="" fill="#23B5F3" transform="translate(0,0)"/>
<path d="" fill="#27B4F0" transform="translate(0,0)"/>
<path d="" fill="#2BB3F0" transform="translate(0,0)"/>
<path d="" fill="#24B0EC" transform="translate(0,0)"/>
<path d="" fill="#28B3EE" transform="translate(0,0)"/>
<path d="" fill="#28B6F0" transform="translate(0,0)"/>
<path d="" fill="#20B1EF" transform="translate(0,0)"/>
<path d="" fill="#28B8F5" transform="translate(0,0)"/>
<path d="" fill="#2BB2ED" transform="translate(0,0)"/>
<path d="" fill="#2DB8F1" transform="translate(0,0)"/>
<path d="" fill="#2BB4EE" transform="translate(0,0)"/>
<path d="" fill="#2BB6F4" transform="translate(0,0)"/>
<path d="" fill="#2BB6F3" transform="translate(0,0)"/>
<path d="" fill="#24B3EC" transform="translate(0,0)"/>
<path d="" fill="#2AB1E7" transform="translate(0,0)"/>
<path d="" fill="#2DB8F4" transform="translate(0,0)"/>
<path d="" fill="#24B6EF" transform="translate(0,0)"/>
<path d="" fill="#26B0EC" transform="translate(0,0)"/>
<path d="" fill="#2DBAF1" transform="translate(0,0)"/>
<path d="" fill="#2CB7F1" transform="translate(0,0)"/>
<path d="" fill="#2BB7F3" transform="translate(0,0)"/>
<path d="" fill="#24B1EC" transform="translate(0,0)"/>
<path d="" fill="#27B9F1" transform="translate(0,0)"/>
<path d="" fill="#2BB7F0" transform="translate(0,0)"/>
<path d="" fill="#28B8F3" transform="translate(0,0)"/>
<path d="" fill="#24B3F0" transform="translate(0,0)"/>
<path d="" fill="#2BB3F2" transform="translate(0,0)"/>
<path d="" fill="#2BB8F4" transform="translate(0,0)"/>
<path d="" fill="#2AB6EF" transform="translate(0,0)"/>
<path d="" fill="#29B2EC" transform="translate(0,0)"/>
<path d="" fill="#26B3ED" transform="translate(0,0)"/>
<path d="" fill="#25B5F3" transform="translate(0,0)"/>
<path d="" fill="#27B3ED" transform="translate(0,0)"/>
<path d="" fill="#2CAEE5" transform="translate(0,0)"/>
<path d="" fill="#28B5F1" transform="translate(0,0)"/>
<path d="" fill="#2DB0E3" transform="translate(0,0)"/>
<path d="" fill="#28B6F2" transform="translate(0,0)"/>
<path d="" fill="#2BB5EE" transform="translate(0,0)"/>
<path d="" fill="#29B6F2" transform="translate(0,0)"/>
<path d="" fill="#2CB8F0" transform="translate(0,0)"/>
<path d="" fill="#26B1F1" transform="translate(0,0)"/>
<path d="" fill="#28B4F0" transform="translate(0,0)"/>
<path d="" fill="#29B8F0" transform="translate(0,0)"/>
<path d="" fill="#24B6F4" transform="translate(0,0)"/>
<path d="" fill="#27B5F0" transform="translate(0,0)"/>
<path d="" fill="#2EB5F2" transform="translate(0,0)"/>
<path d="" fill="#2CADE4" transform="translate(0,0)"/>
<path d="" fill="#2CB9F6" transform="translate(0,0)"/>
<path d="" fill="#2BB3EF" transform="translate(0,0)"/>
<path d="" fill="#29B6F1" transform="translate(0,0)"/>
<path d="" fill="#2BB5F1" transform="translate(0,0)"/>
<path d="" fill="#2DB6F1" transform="translate(0,0)"/>
<path d="" fill="#35BCF3" transform="translate(0,0)"/>
<path d="" fill="#2AB8F3" transform="translate(0,0)"/>
<path d="" fill="#2BB7F0" transform="translate(0,0)"/>
<path d="" fill="#29ABE5" transform="translate(0,0)"/>
<path d="" fill="#29A9E1" transform="translate(0,0)"/>
<path d="" fill="#25B1EE" transform="translate(0,0)"/>
<path d="" fill="#2AB3EE" transform="translate(0,0)"/>
<path d="" fill="#2BB6EE" transform="translate(0,0)"/>
<path d="" fill="#2BB7F2" transform="translate(0,0)"/>
<path d="" fill="#2BB7F2" transform="translate(0,0)"/>
<path d="" fill="#29B6F3" transform="translate(0,0)"/>
<path d="" fill="#2DBAF5" transform="translate(0,0)"/>
<path d="" fill="#31B7EF" transform="translate(0,0)"/>
<path d="" fill="#27B4F2" transform="translate(0,0)"/>
<path d="" fill="#2AB5F0" transform="translate(0,0)"/>
<path d="" fill="#2EB6F2" transform="translate(0,0)"/>
<path d="" fill="#2AB1E8" transform="translate(0,0)"/>
<path d="" fill="#2AB6EF" transform="translate(0,0)"/>
<path d="" fill="#28B5F3" transform="translate(0,0)"/>
<path d="" fill="#29B6F0" transform="translate(0,0)"/>
<path d="" fill="#25BAF5" transform="translate(0,0)"/>
<path d="" fill="#28B7F2" transform="translate(0,0)"/>
<path d="" fill="#29B6F2" transform="translate(0,0)"/>
<path d="" fill="#28B6F2" transform="translate(0,0)"/>
<path d="" fill="#2BB8F2" transform="translate(0,0)"/>
<path d="" fill="#2AB9F3" transform="translate(0,0)"/>
<path d="" fill="#28B6F1" transform="translate(0,0)"/>
<path d="" fill="#2CB6F1" transform="translate(0,0)"/>
<path d="" fill="#2CB9F1" transform="translate(0,0)"/>
<path d="" fill="#2BB8F1" transform="translate(0,0)"/>
<path d="" fill="#27B5F0" transform="translate(0,0)"/>
<path d="" fill="#2DABE2" transform="translate(0,0)"/>
<path d="" fill="#2CB4F0" transform="translate(0,0)"/>
<path d="" fill="#26B6F1" transform="translate(0,0)"/>
<path d="" fill="#27B6EF" transform="translate(0,0)"/>
<path d="" fill="#31B8F1" transform="translate(0,0)"/>
<path d="" fill="#28AEE8" transform="translate(0,0)"/>
<path d="" fill="#28B8F3" transform="translate(0,0)"/>
<path d="" fill="#32B8F0" transform="translate(0,0)"/>
<path d="" fill="#28B4F2" transform="translate(0,0)"/>
<path d="" fill="#2BB8F2" transform="translate(0,0)"/>
<path d="" fill="#24B2F0" transform="translate(0,0)"/>
<path d="" fill="#26B5F0" transform="translate(0,0)"/>
<path d="" fill="#20B6F2" transform="translate(0,0)"/>
<path d="" fill="#2EB6F0" transform="translate(0,0)"/>
<path d="" fill="#24B5F1" transform="translate(0,0)"/>
<path d="" fill="#29B6F1" transform="translate(0,0)"/>
<path d="" fill="#27B5F2" transform="translate(0,0)"/>
<path d="" fill="#34B7EF" transform="translate(0,0)"/>
<path d="" fill="#29B6F4" transform="translate(0,0)"/>
<path d="" fill="#2AADE5" transform="translate(0,0)"/>
<path d="" fill="#29B8F1" transform="translate(0,0)"/>
<path d="" fill="#2BBAF3" transform="translate(0,0)"/>
<path d="" fill="#2AA8DE" transform="translate(0,0)"/>
<path d="" fill="#2BB5F2" transform="translate(0,0)"/>
<path d="" fill="#2CB5F4" transform="translate(0,0)"/>
<path d="" fill="#27B5F1" transform="translate(0,0)"/>
<path d="" fill="#27B6F2" transform="translate(0,0)"/>
<path d="" fill="#2CB6F3" transform="translate(0,0)"/>
<path d="" fill="#2AB4F1" transform="translate(0,0)"/>
<path d="" fill="#2DB4EE" transform="translate(0,0)"/>
<path d="" fill="#2EB7F2" transform="translate(0,0)"/>
<path d="" fill="#29B5F0" transform="translate(0,0)"/>
<path d="" fill="#27B6F4" transform="translate(0,0)"/>
<path d="" fill="#28B2EE" transform="translate(0,0)"/>
<path d="" fill="#28B6F2" transform="translate(0,0)"/>
<path d="" fill="#2DB9F3" transform="translate(0,0)"/>
<path d="" fill="#30B6F1" transform="translate(0,0)"/>
<path d="" fill="#2EB6F0" transform="translate(0,0)"/>
<path d="" fill="#26B8F5" transform="translate(0,0)"/>
<path d="" fill="#2DB5EF" transform="translate(0,0)"/>
<path d="" fill="#28B8F4" transform="translate(0,0)"/>
<path d="" fill="#1EB1EF" transform="translate(0,0)"/>
<path d="" fill="#23B3F0" transform="translate(0,0)"/>
<path d="" fill="#2BB6F3" transform="translate(0,0)"/>
<path d="" fill="#20B3F0" transform="translate(0,0)"/>
<path d="" fill="#26B7F4" transform="translate(0,0)"/>
<path d="" fill="#28B5F2" transform="translate(0,0)"/>
<path d="" fill="#27B6F3" transform="translate(0,0)"/>
<path d="" fill="#25B4F1" transform="translate(0,0)"/>
<path d="" fill="#24B4F1" transform="translate(0,0)"/>
<path d="" fill="#27B6F3" transform="translate(0,0)"/>
<path d="" fill="#2BB1E7" transform="translate(0,0)"/>
<path d="" fill="#27B7F1" transform="translate(0,0)"/>
<path d="" fill="#2BADE3" transform="translate(0,0)"/>
<path d="" fill="#2BAFE5" transform="translate(0,0)"/>
<path d="" fill="#26B4F0" transform="translate(0,0)"/>
<path d="" fill="#2AAAE0" transform="translate(0,0)"/>
<path d="" fill="#23B5EF" transform="translate(0,0)"/>
<path d="" fill="#24B2EE" transform="translate(0,0)"/>
<path d="" fill="#23B4F1" transform="translate(0,0)"/>
<path d="" fill="#27ABE1" transform="translate(0,0)"/>
<path d="" fill="#1FB4F1" transform="translate(0,0)"/>
<path d="" fill="#27B4F3" transform="translate(0,0)"/>
<path d="" fill="#24B4EF" transform="translate(0,0)"/>
<path d="" fill="#26B6F1" transform="translate(0,0)"/>
<path d="" fill="#28B6F0" transform="translate(0,0)"/>
<path d="" fill="#25B6F2" transform="translate(0,0)"/>
<path d="" fill="#21B6EF" transform="translate(0,0)"/>
<path d="" fill="#26B3F1" transform="translate(0,0)"/>
<path d="" fill="#24B3F1" transform="translate(0,0)"/>
<path d="" fill="#27B4F1" transform="translate(0,0)"/>
<path d="" fill="#29ACE6" transform="translate(0,0)"/>
<path d="" fill="#23B4EE" transform="translate(0,0)"/>
<path d="" fill="#28B6F2" transform="translate(0,0)"/>
<path d="" fill="#29ACE2" transform="translate(0,0)"/>
<path d="" fill="#26B5F0" transform="translate(0,0)"/>
<path d="" fill="#26B3EF" transform="translate(0,0)"/>
<path d="" fill="#2AB6F1" transform="translate(0,0)"/>
<path d="" fill="#24B3EE" transform="translate(0,0)"/>
<path d="" fill="#2DB0E6" transform="translate(0,0)"/>
<path d="" fill="#29AFE6" transform="translate(0,0)"/>
<path d="" fill="#27B5EF" transform="translate(0,0)"/>
<path d="" fill="#29B8F8" transform="translate(0,0)"/>
<path d="" fill="#2AABE3" transform="translate(0,0)"/>
<path d="" fill="#2AB6F1" transform="translate(0,0)"/>
<path d="" fill="#28B3EC" transform="translate(0,0)"/>
<path d="" fill="#2EB7EF" transform="translate(0,0)"/>
<path d="" fill="#28B4EF" transform="translate(0,0)"/>
<path d="" fill="#24B2F1" transform="translate(0,0)"/>
<path d="" fill="#2CADE4" transform="translate(0,0)"/>
<path d="" fill="#2DAFE5" transform="translate(0,0)"/>
<path d="" fill="#22ACE5" transform="translate(0,0)"/>
<path d="" fill="#2CADE3" transform="translate(0,0)"/>
<path d="" fill="#20B3F0" transform="translate(0,0)"/>
<path d="" fill="#21B4F2" transform="translate(0,0)"/>
<path d="" fill="#25B6F0" transform="translate(0,0)"/>
<path d="" fill="#25B5F2" transform="translate(0,0)"/>
<path d="" fill="#2CAFE4" transform="translate(0,0)"/>
<path d="" fill="#27ADE7" transform="translate(0,0)"/>
<path d="" fill="#20B4F0" transform="translate(0,0)"/>
<path d="" fill="#24AEE8" transform="translate(0,0)"/>
<path d="" fill="#23B1EF" transform="translate(0,0)"/>
<path d="" fill="#2CADE3" transform="translate(0,0)"/>
<path d="" fill="#2AAFE3" transform="translate(0,0)"/>
<path d="" fill="#2BACE3" transform="translate(0,0)"/>
<path d="" fill="#29ADE3" transform="translate(0,0)"/>
<path d="" fill="#23ABE7" transform="translate(0,0)"/>
<path d="" fill="#22B4EF" transform="translate(0,0)"/>
<path d="" fill="#1BB0EF" transform="translate(0,0)"/>
<path d="" fill="#22B3EF" transform="translate(0,0)"/>
<path d="" fill="#1FB0EF" transform="translate(0,0)"/>
<path d="" fill="#26B3F0" transform="translate(0,0)"/>
<path d="" fill="#25B1EE" transform="translate(0,0)"/>
<path d="" fill="#2BACE5" transform="translate(0,0)"/>
<path d="" fill="#28B6F1" transform="translate(0,0)"/>
<path d="" fill="#23ABE4" transform="translate(0,0)"/>
<path d="" fill="#22B1F0" transform="translate(0,0)"/>
<path d="" fill="#25B3F2" transform="translate(0,0)"/>
<path d="" fill="#25B0F0" transform="translate(0,0)"/>
<path d="" fill="#2BA9E1" transform="translate(0,0)"/>
<path d="" fill="#2CABE2" transform="translate(0,0)"/>
<path d="" fill="#23B0ED" transform="translate(0,0)"/>
<path d="" fill="#1FADEC" transform="translate(0,0)"/>
<path d="" fill="#25B2ED" transform="translate(0,0)"/>
<path d="" fill="#29ACE4" transform="translate(0,0)"/>
<path d="" fill="#2BADE2" transform="translate(0,0)"/>
<path d="" fill="#24B3F1" transform="translate(0,0)"/>
<path d="" fill="#1EB1F2" transform="translate(0,0)"/>
<path d="" fill="#22B1F0" transform="translate(0,0)"/>
<path d="" fill="#24B4F2" transform="translate(0,0)"/>
<path d="" fill="#26B4F1" transform="translate(0,0)"/>
<path d="" fill="#2AADE5" transform="translate(0,0)"/>
<path d="" fill="#26B3F1" transform="translate(0,0)"/>
<path d="" fill="#2BADE5" transform="translate(0,0)"/>
<path d="" fill="#1EB1ED" transform="translate(0,0)"/>
<path d="" fill="#37484F" transform="translate(0,0)"/>
<path d="" fill="#364953" transform="translate(0,0)"/>
<path d="" fill="#354E5A" transform="translate(0,0)"/>
<path d="" fill="#335562" transform="translate(0,0)"/>
<path d="" fill="#325A68" transform="translate(0,0)"/>
<path d="" fill="#335D6F" transform="translate(0,0)"/>
<path d="" fill="#326074" transform="translate(0,0)"/>
<path d="" fill="#33677B" transform="translate(0,0)"/>
<path d="" fill="#336F89" transform="translate(0,0)"/>
<path d="" fill="#309DCB" transform="translate(0,0)"/>
<path d="" fill="#337089" transform="translate(0,0)"/>
<path d="" fill="#335867" transform="translate(0,0)"/>
<path d="" fill="#33525C" transform="translate(0,0)"/>
<path d="" fill="#334C52" transform="translate(0,0)"/>
<path d="" fill="#28ADE4" transform="translate(0,0)"/>
<path d="" fill="#29ACE4" transform="translate(0,0)"/>
<path d="" fill="#29ACE2" transform="translate(0,0)"/>
<path d="" fill="#2AADE0" transform="translate(0,0)"/>
<path d="" fill="#29ADE3" transform="translate(0,0)"/>
<path d="" fill="#2CACE1" transform="translate(0,0)"/>
<path d="" fill="#38494E" transform="translate(0,0)"/>
<path d="" fill="#33525E" transform="translate(0,0)"/>
<path d="" fill="#345D6D" transform="translate(0,0)"/>
<path d="" fill="#33667B" transform="translate(0,0)"/>
<path d="" fill="#2EAEE6" transform="translate(0,0)"/>
<path d="" fill="#346F85" transform="translate(0,0)"/>
<path d="" fill="#335866" transform="translate(0,0)"/>
<path d="" fill="#33525C" transform="translate(0,0)"/>
<path d="" fill="#364850" transform="translate(0,0)"/>
<path d="" fill="#37484E" transform="translate(0,0)"/>
<path d="" fill="#2BADE2" transform="translate(0,0)"/>
<path d="" fill="#2DADE3" transform="translate(0,0)"/>
<path d="" fill="#27A9E2" transform="translate(0,0)"/>
<path d="" fill="#2BA8DF" transform="translate(0,0)"/>
<path d="" fill="#2DAEE1" transform="translate(0,0)"/>
<path d="" fill="#2BACE2" transform="translate(0,0)"/>
<path d="" fill="#2DACE2" transform="translate(0,0)"/>
<path d="" fill="#2AAAE2" transform="translate(0,0)"/>
<path d="" fill="#28ADE5" transform="translate(0,0)"/>
<path d="" fill="#2CAAE0" transform="translate(0,0)"/>
<path d="" fill="#2CADE1" transform="translate(0,0)"/>
<path d="" fill="#344449" transform="translate(0,0)"/>
<path d="" fill="#2AABE2" transform="translate(0,0)"/>
<path d="" fill="#2CAAE2" transform="translate(0,0)"/>
<path d="" fill="#364346" transform="translate(0,0)"/>
<path d="" fill="#354248" transform="translate(0,0)"/>
<path d="" fill="#314951" transform="translate(0,0)"/>
<path d="" fill="#305B6C" transform="translate(0,0)"/>
<path d="" fill="#305E70" transform="translate(0,0)"/>
<path d="" fill="#3085A7" transform="translate(0,0)"/>
<path d="" fill="#2BA8DC" transform="translate(0,0)"/>
<path d="" fill="#2FA9DF" transform="translate(0,0)"/>
<path d="" fill="#305764" transform="translate(0,0)"/>
<path d="" fill="#31474E" transform="translate(0,0)"/>
<path d="" fill="#2CA9DF" transform="translate(0,0)"/>
<path d="" fill="#29ACE4" transform="translate(0,0)"/>
<path d="" fill="#2BA7DE" transform="translate(0,0)"/>
<path d="" fill="#2EA5D9" transform="translate(0,0)"/>
<path d="" fill="#2BA6D7" transform="translate(0,0)"/>
<path d="" fill="#343F42" transform="translate(0,0)"/>
<path d="" fill="#2FA6D6" transform="translate(0,0)"/>
<path d="" fill="#2FA6D6" transform="translate(0,0)"/>
<path d="" fill="#2DA0D0" transform="translate(0,0)"/>
<path d="" fill="#24AAE5" transform="translate(0,0)"/>
</svg>
